<svg width="628" height="225" viewBox="0 0 628 225" fill="none" xmlns="http://www.w3.org/2000/svg">
<path d="M147.193 34.3913L143.963 23.6114C143.963 23.6114 81.9617 23.432 34.8984 37.6666L98.0805 75.6836L147.193 34.3913Z" fill="#353637"/>
<path d="M34.9001 37.6657L136.083 28.3085L164.013 43.5956C164.013 43.5956 66.4842 76.0621 34.9001 37.6657Z" fill="#E05F92"/>
<path d="M141.893 31.4911L53.0184 39.6109" stroke="#353637" stroke-width="0.5" stroke-miterlimit="10" stroke-linecap="round" stroke-linejoin="round"/>
<path d="M153.258 37.7108L62.0724 47.8586" stroke="#353637" stroke-width="0.5" stroke-miterlimit="10" stroke-linecap="round" stroke-linejoin="round"/>
<path d="M142.91 35.0898L117.495 37.5575" stroke="#353637" stroke-width="0.5" stroke-miterlimit="10" stroke-linecap="round" stroke-linejoin="round"/>
<path d="M66.8253 42.2092L85.7488 39.6168" stroke="#353637" stroke-width="0.5" stroke-miterlimit="10" stroke-linecap="round" stroke-linejoin="round"/>
<path d="M54.5694 47.5727L53.7767 198.634C53.7767 198.634 131.184 196.189 169.592 204.841L173.441 43.2896C173.441 43.2896 117.955 33.1648 54.5694 47.5727Z" fill="#353637"/>
<path d="M156.301 102.727L157.018 53.37C157.018 53.37 142.691 53.1673 122.921 53.7988" stroke="#F3EADF" stroke-width="0.5" stroke-miterlimit="10" stroke-linecap="round" stroke-linejoin="round"/>
<path d="M125.834 187.803C135.881 188.176 145.98 188.711 155.04 189.473L155.76 139.898" stroke="#F3EADF" stroke-width="0.5" stroke-miterlimit="10" stroke-linecap="round" stroke-linejoin="round"/>
<path d="M67.8828 137.42L66.4085 187.018C66.4085 187.018 80.4253 186.864 98.9495 187.132" stroke="#F3EADF" stroke-width="0.5" stroke-miterlimit="10" stroke-linecap="round" stroke-linejoin="round"/>
<path d="M103.542 54.6378C92.7524 55.2375 81.3205 56.1059 70.2591 57.3637L68.9205 102.406" stroke="#F3EADF" stroke-width="0.5" stroke-miterlimit="10" stroke-linecap="round" stroke-linejoin="round"/>
<path d="M64.6836 109.918L72.9764 127.302" stroke="#F3EADF" stroke-width="0.5" stroke-miterlimit="10" stroke-linecap="round" stroke-linejoin="round"/>
<path d="M72.3993 111.525L64.4508 125.417" stroke="#F3EADF" stroke-width="0.5" stroke-miterlimit="10" stroke-linecap="round" stroke-linejoin="round"/>
<path d="M151.387 110.887L160.663 127.766" stroke="#F3EADF" stroke-width="0.5" stroke-miterlimit="10" stroke-linecap="round" stroke-linejoin="round"/>
<path d="M159.183 112.048L152.045 126.374" stroke="#F3EADF" stroke-width="0.5" stroke-miterlimit="10" stroke-linecap="round" stroke-linejoin="round"/>
<path d="M108.723 50.4062L109.215 57.4931" stroke="#F3EADF" stroke-width="0.5" stroke-miterlimit="10" stroke-linecap="round" stroke-linejoin="round"/>
<path d="M118.359 50.5605L118.977 56.7652" stroke="#F3EADF" stroke-width="0.5" stroke-miterlimit="10" stroke-linecap="round" stroke-linejoin="round"/>
<path d="M113.41 46.9238L114.5 61.0437" stroke="#F3EADF" stroke-width="0.5" stroke-miterlimit="10" stroke-linecap="round" stroke-linejoin="round"/>
<path d="M105.555 181.564L105.748 191.042" stroke="#F3EADF" stroke-width="0.5" stroke-miterlimit="10" stroke-linecap="round" stroke-linejoin="round"/>
<path d="M113.012 178.809L113.235 193.045" stroke="#F3EADF" stroke-width="0.5" stroke-miterlimit="10" stroke-linecap="round" stroke-linejoin="round"/>
<path d="M120.141 181.299L120.201 191.26" stroke="#F3EADF" stroke-width="0.5" stroke-miterlimit="10" stroke-linecap="round" stroke-linejoin="round"/>
<path d="M76.0598 62.318C75.5993 63.2333 74.4833 63.6009 73.5689 63.1406C72.6535 62.68 72.2859 61.5641 72.7463 60.6496C73.2068 59.7343 74.3228 59.3667 75.2372 59.827C76.1526 60.2876 76.5204 61.4026 76.0598 62.318Z" fill="#E05F92"/>
<path d="M152.513 185.836C152.052 186.751 150.936 187.118 150.022 186.658C149.107 186.198 148.739 185.082 149.199 184.167C149.66 183.252 150.776 182.884 151.69 183.345C152.606 183.805 152.973 184.92 152.513 185.836Z" fill="#E05F92"/>
<path d="M72.6926 183.564C72.2321 184.479 71.1161 184.847 70.2017 184.387C69.2863 183.926 68.9187 182.81 69.3791 181.896C69.8396 180.98 70.9556 180.613 71.87 181.073C72.7854 181.534 73.1542 182.649 72.6926 183.564Z" fill="#E05F92"/>
<path d="M153.415 59.0973C152.955 60.0126 151.839 60.3802 150.924 59.9199C150.009 59.4593 149.641 58.3433 150.102 57.4289C150.562 56.5135 151.678 56.146 152.593 56.6063C153.508 57.0669 153.876 58.1819 153.415 59.0973Z" fill="#E05F92"/>
<path d="M84.8242 73.7266L98.3532 90.2825" stroke="#F3EADF" stroke-width="0.5" stroke-miterlimit="10" stroke-linecap="round" stroke-linejoin="round"/>
<path d="M143.462 74.7416L131.831 92.4797" stroke="#F3EADF" stroke-width="0.5" stroke-miterlimit="10" stroke-linecap="round" stroke-linejoin="round"/>
<path d="M95.5971 150.09L78.809 175.741" stroke="#F3EADF" stroke-width="0.5" stroke-miterlimit="10" stroke-linecap="round" stroke-linejoin="round"/>
<path d="M132.195 150.588L147.454 174.702" stroke="#F3EADF" stroke-width="0.5" stroke-miterlimit="10" stroke-linecap="round" stroke-linejoin="round"/>
<path d="M54.5686 47.5727C54.5686 47.5727 44.4908 34.6368 34.8975 37.6663L36.4879 185.083C36.4879 185.083 44.7158 186.815 53.776 198.634L54.5686 47.5727Z" fill="#E05F92"/>
<path d="M35.3861 82.977C35.3861 82.977 45.9513 81.0088 54.3394 91.114" stroke="#353637" stroke-width="0.5" stroke-miterlimit="10" stroke-linecap="round" stroke-linejoin="round"/>
<path d="M36.1736 156.049C36.1736 156.049 43.5658 153.745 53.9635 162.616" stroke="#353637" stroke-width="0.5" stroke-miterlimit="10" stroke-linecap="round" stroke-linejoin="round"/>
<path d="M39.1715 42.0989L39.2947 77.9006C39.2947 77.9006 46.1331 78.7693 50.9645 82.4135L50.7593 48.8283C50.7593 48.8283 46.6173 42.6572 39.1715 42.0989Z" fill="#353637"/>
<path d="M39.0153 162.377L38.9671 183.38C38.9671 183.38 44.8182 182.827 50.9386 190.836L50.608 166.339C50.608 166.339 45.4505 160.72 39.0153 162.377Z" fill="#353637"/>
<path d="M44.3519 135.353L45.397 131.073L46.3496 135.405L49.18 132.739L47.9492 136.938L51.4833 136.906L48.5407 139.368L51.4292 141.98L47.8974 141.765L49.0365 146.026L46.2653 143.215L45.2211 147.495L44.2685 143.163L41.4384 145.829L42.6681 141.629L39.1338 141.662L42.0775 139.2L39.1892 136.587L42.7198 136.803L41.5806 132.542L44.3519 135.353Z" fill="#353637"/>
<path d="M45.3617 98.7374C46.2161 97.0103 45.9816 93.5347 43.4742 92.0199C44.4529 91.8846 45.4901 92.1442 46.4293 92.8462C48.692 94.5389 49.5318 98.1622 48.305 100.94C47.0782 103.717 44.2493 104.596 41.9866 102.903C41.0484 102.201 40.3553 101.168 39.9524 99.9998C42.0207 101.941 44.4307 100.845 45.3617 98.7374Z" fill="#353637"/>
<path d="M43.7528 115.914L45.8347 109.584L46.8742 116.278L49.9653 118.641L46.5568 120.247L44.4748 126.577L43.4353 119.883L40.3432 117.52L43.7528 115.914Z" fill="#353637"/>
<path d="M40.9564 37.6161C40.9564 37.6161 46.6166 38.5725 53.8566 46.7176" stroke="#353637" stroke-width="0.5" stroke-miterlimit="10" stroke-linecap="round" stroke-linejoin="round"/>
<path d="M244.168 111.952H262.216C260.488 98.704 254.056 89.776 240.424 89.776C233.704 89.776 225.448 91.984 224.392 99.376L222.76 100.912L213.64 91.984C219.112 86.416 227.752 81.616 239.464 81.616C261.64 81.616 276.328 98.704 276.328 118.96C276.328 139.408 261.352 155.344 241.096 155.344C226.504 155.344 214.024 146.992 207.688 135.952C211.048 133.456 215.56 129.328 218.92 125.776C220.264 137.008 229.384 147.568 242.92 147.568C257.224 147.568 262.504 135.76 262.504 120.112C261.256 122.224 256.84 123.184 252.136 123.184H243.208C240.04 123.184 237.16 123.568 233.32 126.544L231.592 124.24L244.168 111.952ZM404.659 99.664L401.971 97.936C408.115 85.072 426.163 82 443.923 82C454.867 82 465.523 83.152 473.779 83.824C470.227 88.912 467.923 93.904 466.483 98.8C462.451 97.84 454.003 95.824 444.499 94.48V143.248C444.499 147.472 446.803 150.064 450.163 150.928L449.779 154H425.203L425.587 150.928C429.043 149.968 430.579 147.376 430.579 143.056V93.136C429.331 93.04 428.179 93.04 427.027 93.04C417.427 93.04 408.787 94.672 404.659 99.664Z" fill="#E05F92"/>
<path d="M283.186 118.768L281.362 116.944C286.738 109.744 292.114 106 300.754 103.696C309.874 105.328 317.17 111.472 317.17 117.04C317.17 120.976 313.522 123.472 308.914 125.296C316.786 126.352 320.914 132.304 320.914 137.872C320.914 144.496 315.25 151.984 299.698 157.36C293.362 156.688 286.162 151.696 282.514 146.608L289.426 139.504C293.17 143.44 299.506 146.608 305.458 148.816C308.146 146.8 309.202 144.304 309.202 141.712C309.202 136.432 304.594 131.248 296.242 131.248C295.09 131.248 295.09 131.344 294.322 131.344L294.514 126.832C302.386 124.72 304.594 123.568 304.594 119.44C304.594 115.6 302.578 114.064 298.066 114.064C293.362 114.064 287.41 115.696 283.186 118.768ZM336.556 118.192C335.692 120.016 335.308 121.936 335.308 124.048C335.308 136.048 348.268 145.552 356.62 145.552C358.54 145.552 360.172 145.072 361.996 144.112C362.38 142.864 362.572 141.52 362.572 139.888C362.572 127.6 352.012 117.52 341.26 117.52C339.724 117.52 338.092 117.712 336.556 118.192ZM349.9 104.368C364.972 113.296 369.676 123.184 369.676 131.92C369.676 144.592 359.788 152.944 347.788 155.248C335.884 150.928 326.956 142.672 326.956 131.056C326.956 119.632 335.5 112.816 349.9 104.368ZM476.619 118.192C475.755 120.016 475.371 121.936 475.371 124.048C475.371 136.048 488.331 145.552 496.683 145.552C498.603 145.552 500.235 145.072 502.059 144.112C502.443 142.864 502.635 141.52 502.635 139.888C502.635 127.6 492.075 117.52 481.323 117.52C479.787 117.52 478.155 117.712 476.619 118.192ZM489.963 104.368C505.035 113.296 509.739 123.184 509.739 131.92C509.739 144.592 499.851 152.944 487.851 155.248C475.947 150.928 467.019 142.672 467.019 131.056C467.019 119.632 475.562 112.816 489.963 104.368ZM569.412 112.048V140.944C569.412 145.072 571.428 147.184 575.556 147.184L575.172 149.488L566.628 154.864L557.7 148.048V125.104L544.836 148.912L531.78 127.888V154H520.26V121.456C520.26 117.712 518.628 115.696 515.364 115.408L515.748 113.68L524.772 104.56C529.572 105.616 532.74 106.96 535.812 112.24L546.564 130.96L559.812 103.696L569.412 112.048Z" fill="#353637"/>
<path d="M114.49 112.61L126.514 112.164C125.035 103.381 120.529 97.5919 111.448 97.9288C106.971 98.0948 101.525 99.7699 101.004 104.721L99.9549 105.784L93.6584 100.062C97.1663 96.217 102.804 92.8057 110.606 92.5162C125.38 91.9682 135.588 102.989 136.088 116.484C136.594 130.107 127.01 141.094 113.516 141.594C103.794 141.955 95.2737 136.699 90.7797 129.501C92.9565 127.755 95.8604 124.893 98.0111 122.444C99.1841 129.893 105.521 136.703 114.539 136.369C124.068 136.015 127.294 128.018 126.907 117.593C126.128 119.031 123.21 119.78 120.076 119.896L114.128 120.117C112.017 120.195 110.108 120.522 107.623 122.599L106.415 121.107L114.49 112.61Z" fill="#E05F92"/>
</svg>
