<svg width="588" height="224" viewBox="0 0 588 224" fill="none" xmlns="http://www.w3.org/2000/svg">
<path d="M146.326 33.7741L143.095 22.9943C143.095 22.9943 81.0945 22.8148 34.0312 37.0494L97.2133 75.0664L146.326 33.7741Z" fill="#353637"/>
<path d="M34.0329 37.0485L135.216 27.6913L163.146 42.9784C163.146 42.9784 65.617 75.445 34.0329 37.0485Z" fill="#726DC3"/>
<path d="M141.026 30.8739L52.1512 38.9937" stroke="#353637" stroke-width="0.5" stroke-miterlimit="10" stroke-linecap="round" stroke-linejoin="round"/>
<path d="M152.391 37.0936L61.2052 47.2414" stroke="#353637" stroke-width="0.5" stroke-miterlimit="10" stroke-linecap="round" stroke-linejoin="round"/>
<path d="M142.043 34.4726L116.628 36.9403" stroke="#353637" stroke-width="0.5" stroke-miterlimit="10" stroke-linecap="round" stroke-linejoin="round"/>
<path d="M65.9581 41.592L84.8816 38.9996" stroke="#353637" stroke-width="0.5" stroke-miterlimit="10" stroke-linecap="round" stroke-linejoin="round"/>
<path d="M53.7022 46.9555L52.9095 198.017C52.9095 198.017 130.317 195.572 168.725 204.224L172.573 42.6724C172.573 42.6724 117.087 32.5476 53.7022 46.9555Z" fill="#353637"/>
<path d="M155.434 102.11L156.15 52.7528C156.15 52.7528 141.823 52.5501 122.054 53.1816" stroke="white" stroke-width="0.5" stroke-miterlimit="10" stroke-linecap="round" stroke-linejoin="round"/>
<path d="M124.967 187.186C135.013 187.558 145.113 188.093 154.173 188.855L154.893 139.28" stroke="white" stroke-width="0.5" stroke-miterlimit="10" stroke-linecap="round" stroke-linejoin="round"/>
<path d="M67.0156 136.803L65.5413 186.401C65.5413 186.401 79.5581 186.247 98.0823 186.514" stroke="white" stroke-width="0.5" stroke-miterlimit="10" stroke-linecap="round" stroke-linejoin="round"/>
<path d="M102.675 54.0206C91.8852 54.6203 80.4533 55.4887 69.3919 56.7465L68.0533 101.789" stroke="white" stroke-width="0.5" stroke-miterlimit="10" stroke-linecap="round" stroke-linejoin="round"/>
<path d="M63.8164 109.301L72.1092 126.685" stroke="white" stroke-width="0.5" stroke-miterlimit="10" stroke-linecap="round" stroke-linejoin="round"/>
<path d="M71.5321 110.908L63.5836 124.8" stroke="white" stroke-width="0.5" stroke-miterlimit="10" stroke-linecap="round" stroke-linejoin="round"/>
<path d="M150.52 110.27L159.795 127.149" stroke="white" stroke-width="0.5" stroke-miterlimit="10" stroke-linecap="round" stroke-linejoin="round"/>
<path d="M158.316 111.431L151.178 125.757" stroke="white" stroke-width="0.5" stroke-miterlimit="10" stroke-linecap="round" stroke-linejoin="round"/>
<path d="M107.855 49.7891L108.348 56.8759" stroke="white" stroke-width="0.5" stroke-miterlimit="10" stroke-linecap="round" stroke-linejoin="round"/>
<path d="M117.492 49.9434L118.11 56.1481" stroke="white" stroke-width="0.5" stroke-miterlimit="10" stroke-linecap="round" stroke-linejoin="round"/>
<path d="M112.543 46.3066L113.633 60.4266" stroke="white" stroke-width="0.5" stroke-miterlimit="10" stroke-linecap="round" stroke-linejoin="round"/>
<path d="M104.688 180.947L104.88 190.425" stroke="white" stroke-width="0.5" stroke-miterlimit="10" stroke-linecap="round" stroke-linejoin="round"/>
<path d="M112.145 178.191L112.368 192.428" stroke="white" stroke-width="0.5" stroke-miterlimit="10" stroke-linecap="round" stroke-linejoin="round"/>
<path d="M119.273 180.682L119.333 190.642" stroke="white" stroke-width="0.5" stroke-miterlimit="10" stroke-linecap="round" stroke-linejoin="round"/>
<path d="M75.1926 61.7008C74.7321 62.6162 73.6161 62.9837 72.7017 62.5234C71.7863 62.0628 71.4187 60.9469 71.8791 60.0325C72.3396 59.1171 73.4556 58.7495 74.37 59.2098C75.2854 59.6704 75.6532 60.7854 75.1926 61.7008Z" fill="#726DC3"/>
<path d="M151.646 185.218C151.185 186.134 150.069 186.501 149.155 186.041C148.239 185.58 147.872 184.464 148.332 183.55C148.793 182.635 149.909 182.267 150.823 182.727C151.739 183.188 152.106 184.303 151.646 185.218Z" fill="#726DC3"/>
<path d="M71.8254 182.947C71.3649 183.862 70.2489 184.23 69.3345 183.769C68.4191 183.309 68.0516 182.193 68.5119 181.279C68.9725 180.363 70.0884 179.996 71.0028 180.456C71.9182 180.916 72.287 182.032 71.8254 182.947Z" fill="#726DC3"/>
<path d="M152.548 58.4801C152.088 59.3955 150.972 59.763 150.057 59.3027C149.142 58.8421 148.774 57.7262 149.235 56.8117C149.695 55.8964 150.811 55.5288 151.725 55.9891C152.641 56.4497 153.009 57.5647 152.548 58.4801Z" fill="#726DC3"/>
<path d="M83.957 73.1094L97.486 89.6654" stroke="white" stroke-width="0.5" stroke-miterlimit="10" stroke-linecap="round" stroke-linejoin="round"/>
<path d="M142.595 74.1244L130.964 91.8626" stroke="white" stroke-width="0.5" stroke-miterlimit="10" stroke-linecap="round" stroke-linejoin="round"/>
<path d="M94.7299 149.473L77.9418 175.124" stroke="white" stroke-width="0.5" stroke-miterlimit="10" stroke-linecap="round" stroke-linejoin="round"/>
<path d="M131.328 149.971L146.587 174.085" stroke="white" stroke-width="0.5" stroke-miterlimit="10" stroke-linecap="round" stroke-linejoin="round"/>
<path d="M53.7014 46.9575C53.7014 46.9575 43.6236 34.0216 34.0303 37.051L35.6207 184.468C35.6207 184.468 43.8487 186.2 52.9088 198.019L53.7014 46.9575Z" fill="#726DC3"/>
<path d="M34.5189 82.3617C34.5189 82.3617 45.0841 80.3935 53.4722 90.4988" stroke="#353637" stroke-width="0.5" stroke-miterlimit="10" stroke-linecap="round" stroke-linejoin="round"/>
<path d="M35.3064 155.434C35.3064 155.434 42.6986 153.13 53.0963 162.001" stroke="#353637" stroke-width="0.5" stroke-miterlimit="10" stroke-linecap="round" stroke-linejoin="round"/>
<path d="M38.3043 41.4837L38.4276 77.2854C38.4276 77.2854 45.2659 78.154 50.0973 81.7983L49.8921 48.2131C49.8921 48.2131 45.7501 42.0419 38.3043 41.4837Z" fill="#353637"/>
<path d="M38.1481 161.762L38.0999 182.764C38.0999 182.764 43.951 182.212 50.0714 190.22L49.7408 165.724C49.7408 165.724 44.5833 160.104 38.1481 161.762Z" fill="#353637"/>
<path d="M43.4847 134.738L44.5299 130.458L45.4824 134.79L48.3128 132.123L47.0821 136.323L50.6161 136.29L47.6735 138.753L50.562 141.365L47.0302 141.15L48.1693 145.411L45.3981 142.599L44.3539 146.88L43.4013 142.548L40.5712 145.213L41.8009 141.014L38.2666 141.047L41.2103 138.585L38.322 135.972L41.8526 136.188L40.7134 131.927L43.4847 134.738Z" fill="#353637"/>
<path d="M44.4945 98.1222C45.3489 96.3951 45.1145 92.9195 42.607 91.4046C43.5857 91.2693 44.623 91.529 45.5622 92.2309C47.8248 93.9237 48.6646 97.5469 47.4378 100.324C46.2111 103.102 43.3821 103.981 41.1194 102.288C40.1812 101.586 39.4881 100.553 39.0852 99.3845C41.1536 101.326 43.5635 100.23 44.4945 98.1222Z" fill="#353637"/>
<path d="M42.8856 115.299L44.9675 108.969L46.007 115.663L49.0981 118.026L45.6896 119.632L43.6077 125.962L42.5682 119.268L39.4761 116.905L42.8856 115.299Z" fill="#353637"/>
<path d="M40.0892 37.0009C40.0892 37.0009 45.7494 37.9572 52.9894 46.1024" stroke="#353637" stroke-width="0.5" stroke-miterlimit="10" stroke-linecap="round" stroke-linejoin="round"/>
<path d="M243.168 110.95H261.216C259.488 97.702 253.056 88.774 239.424 88.774C232.704 88.774 224.448 90.982 223.392 98.374L221.76 99.91L212.64 90.982C218.112 85.414 226.752 80.614 238.464 80.614C260.64 80.614 275.328 97.702 275.328 117.958C275.328 138.406 260.352 154.342 240.096 154.342C225.504 154.342 213.024 145.99 206.688 134.95C210.048 132.454 214.56 128.326 217.92 124.774C219.264 136.006 228.384 146.566 241.92 146.566C256.224 146.566 261.504 134.758 261.504 119.11C260.256 121.222 255.84 122.182 251.136 122.182H242.208C239.04 122.182 236.16 122.566 232.32 125.542L230.592 123.238L243.168 110.95ZM282.186 117.766L280.362 115.942C285.738 108.742 291.114 104.998 299.754 102.694C308.874 104.326 316.17 110.47 316.17 116.038C316.17 119.974 312.522 122.47 307.914 124.294C315.786 125.35 319.914 131.302 319.914 136.87C319.914 143.494 314.25 150.982 298.698 156.358C292.362 155.686 285.162 150.694 281.514 145.606L288.426 138.502C292.17 142.438 298.506 145.606 304.458 147.814C307.146 145.798 308.202 143.302 308.202 140.71C308.202 135.43 303.594 130.246 295.242 130.246C294.09 130.246 294.09 130.342 293.322 130.342L293.514 125.83C301.386 123.718 303.594 122.566 303.594 118.438C303.594 114.598 301.578 113.062 297.066 113.062C292.362 113.062 286.41 114.694 282.186 117.766ZM335.556 117.19C334.692 119.014 334.308 120.934 334.308 123.046C334.308 135.046 347.268 144.55 355.62 144.55C357.54 144.55 359.172 144.07 360.996 143.11C361.38 141.862 361.572 140.518 361.572 138.886C361.572 126.598 351.012 116.518 340.26 116.518C338.724 116.518 337.092 116.71 335.556 117.19ZM348.9 103.366C363.972 112.294 368.676 122.182 368.676 130.918C368.676 143.59 358.788 151.942 346.788 154.246C334.884 149.926 325.956 141.67 325.956 130.054C325.956 118.63 334.5 111.814 348.9 103.366Z" fill="#F5F5F5"/>
<path d="M403.659 98.662L400.971 96.934C407.115 84.07 425.163 80.998 442.923 80.998C453.867 80.998 464.523 82.15 472.779 82.822C469.227 87.91 466.923 92.902 465.483 97.798C461.451 96.838 453.003 94.822 443.499 93.478V142.246C443.499 146.47 445.803 149.062 449.163 149.926L448.779 152.998H424.203L424.587 149.926C428.043 148.966 429.579 146.374 429.579 142.054V92.134C428.331 92.038 427.179 92.038 426.027 92.038C416.427 92.038 407.787 93.67 403.659 98.662ZM475.619 117.19C474.755 119.014 474.371 120.934 474.371 123.046C474.371 135.046 487.331 144.55 495.683 144.55C497.603 144.55 499.235 144.07 501.059 143.11C501.443 141.862 501.635 140.518 501.635 138.886C501.635 126.598 491.075 116.518 480.323 116.518C478.787 116.518 477.155 116.71 475.619 117.19ZM488.963 103.366C504.035 112.294 508.739 122.182 508.739 130.918C508.739 143.59 498.851 151.942 486.851 154.246C474.947 149.926 466.019 141.67 466.019 130.054C466.019 118.63 474.562 111.814 488.963 103.366ZM568.412 111.046V139.942C568.412 144.07 570.428 146.182 574.556 146.182L574.172 148.486L565.628 153.862L556.7 147.046V124.102L543.836 147.91L530.78 126.886V152.998H519.26V120.454C519.26 116.71 517.628 114.694 514.364 114.406L514.748 112.678L523.772 103.558C528.572 104.614 531.74 105.958 534.812 111.238L545.564 129.958L558.812 102.694L568.412 111.046Z" fill="#6E69BA"/>
<path d="M113.427 112.051L125.451 111.605C123.973 102.822 119.467 97.0333 110.385 97.3702C105.908 97.5362 100.462 99.2113 99.9417 104.162L98.8924 105.226L92.5959 99.5031C96.1038 95.6584 101.741 92.2471 109.544 91.9576C124.318 91.4096 134.525 102.431 135.026 115.925C135.531 129.548 125.948 140.535 112.453 141.036C102.732 141.396 94.2112 136.14 89.7172 128.942C91.894 127.196 94.7979 124.335 96.9486 121.885C98.1216 129.335 104.458 136.145 113.476 135.81C123.006 135.456 126.231 127.459 125.845 117.035C125.065 118.472 122.147 119.221 119.013 119.337L113.065 119.558C110.955 119.636 109.046 119.963 106.561 122.041L105.353 120.549L113.427 112.051Z" fill="#726DC3"/>
</svg>
