<svg width="588" height="224" viewBox="0 0 588 224" fill="none" xmlns="http://www.w3.org/2000/svg">
<path d="M146.326 33.7741L143.095 22.9943C143.095 22.9943 81.0945 22.8148 34.0312 37.0494L97.2133 75.0664L146.326 33.7741Z" fill="#353637"/>
<path d="M34.0329 37.0485L135.216 27.6913L163.146 42.9784C163.146 42.9784 65.617 75.445 34.0329 37.0485Z" fill="#BC8F86"/>
<path d="M141.026 30.8739L52.1512 38.9937" stroke="#353637" stroke-width="0.5" stroke-miterlimit="10" stroke-linecap="round" stroke-linejoin="round"/>
<path d="M152.391 37.0936L61.2052 47.2414" stroke="#353637" stroke-width="0.5" stroke-miterlimit="10" stroke-linecap="round" stroke-linejoin="round"/>
<path d="M142.043 34.4726L116.628 36.9403" stroke="#353637" stroke-width="0.5" stroke-miterlimit="10" stroke-linecap="round" stroke-linejoin="round"/>
<path d="M65.9581 41.592L84.8816 38.9996" stroke="#353637" stroke-width="0.5" stroke-miterlimit="10" stroke-linecap="round" stroke-linejoin="round"/>
<path d="M53.7022 46.9555L52.9095 198.017C52.9095 198.017 130.317 195.572 168.725 204.224L172.573 42.6724C172.573 42.6724 117.087 32.5476 53.7022 46.9555Z" fill="#353637"/>
<path d="M155.434 102.11L156.15 52.7528C156.15 52.7528 141.823 52.5501 122.054 53.1816" stroke="#F3EADF" stroke-width="0.5" stroke-miterlimit="10" stroke-linecap="round" stroke-linejoin="round"/>
<path d="M124.967 187.186C135.013 187.558 145.113 188.093 154.173 188.855L154.893 139.28" stroke="#F3EADF" stroke-width="0.5" stroke-miterlimit="10" stroke-linecap="round" stroke-linejoin="round"/>
<path d="M67.0156 136.803L65.5413 186.401C65.5413 186.401 79.5581 186.247 98.0823 186.514" stroke="#F3EADF" stroke-width="0.5" stroke-miterlimit="10" stroke-linecap="round" stroke-linejoin="round"/>
<path d="M102.675 54.0206C91.8852 54.6203 80.4533 55.4887 69.3919 56.7465L68.0533 101.789" stroke="#F3EADF" stroke-width="0.5" stroke-miterlimit="10" stroke-linecap="round" stroke-linejoin="round"/>
<path d="M63.8164 109.301L72.1092 126.685" stroke="#F3EADF" stroke-width="0.5" stroke-miterlimit="10" stroke-linecap="round" stroke-linejoin="round"/>
<path d="M71.5321 110.908L63.5836 124.8" stroke="#F3EADF" stroke-width="0.5" stroke-miterlimit="10" stroke-linecap="round" stroke-linejoin="round"/>
<path d="M150.52 110.27L159.795 127.149" stroke="#F3EADF" stroke-width="0.5" stroke-miterlimit="10" stroke-linecap="round" stroke-linejoin="round"/>
<path d="M158.316 111.431L151.178 125.757" stroke="#F3EADF" stroke-width="0.5" stroke-miterlimit="10" stroke-linecap="round" stroke-linejoin="round"/>
<path d="M107.855 49.7891L108.348 56.8759" stroke="#F3EADF" stroke-width="0.5" stroke-miterlimit="10" stroke-linecap="round" stroke-linejoin="round"/>
<path d="M117.492 49.9434L118.11 56.1481" stroke="#F3EADF" stroke-width="0.5" stroke-miterlimit="10" stroke-linecap="round" stroke-linejoin="round"/>
<path d="M112.543 46.3066L113.633 60.4266" stroke="#F3EADF" stroke-width="0.5" stroke-miterlimit="10" stroke-linecap="round" stroke-linejoin="round"/>
<path d="M104.688 180.947L104.88 190.425" stroke="#F3EADF" stroke-width="0.5" stroke-miterlimit="10" stroke-linecap="round" stroke-linejoin="round"/>
<path d="M112.145 178.191L112.368 192.428" stroke="#F3EADF" stroke-width="0.5" stroke-miterlimit="10" stroke-linecap="round" stroke-linejoin="round"/>
<path d="M119.273 180.682L119.333 190.642" stroke="#F3EADF" stroke-width="0.5" stroke-miterlimit="10" stroke-linecap="round" stroke-linejoin="round"/>
<path d="M75.1926 61.7008C74.7321 62.6162 73.6161 62.9837 72.7017 62.5234C71.7863 62.0628 71.4187 60.9469 71.8791 60.0325C72.3396 59.1171 73.4556 58.7495 74.37 59.2098C75.2854 59.6704 75.6532 60.7854 75.1926 61.7008Z" fill="#BC8F86"/>
<path d="M151.646 185.218C151.185 186.134 150.069 186.501 149.155 186.041C148.239 185.58 147.872 184.464 148.332 183.55C148.793 182.635 149.909 182.267 150.823 182.727C151.739 183.188 152.106 184.303 151.646 185.218Z" fill="#BC8F86"/>
<path d="M71.8254 182.947C71.3649 183.862 70.2489 184.23 69.3345 183.769C68.4191 183.309 68.0516 182.193 68.5119 181.279C68.9725 180.363 70.0884 179.996 71.0028 180.456C71.9182 180.916 72.287 182.032 71.8254 182.947Z" fill="#BC8F86"/>
<path d="M152.548 58.4801C152.088 59.3955 150.972 59.763 150.057 59.3027C149.142 58.8421 148.774 57.7262 149.235 56.8117C149.695 55.8964 150.811 55.5288 151.725 55.9891C152.641 56.4497 153.009 57.5647 152.548 58.4801Z" fill="#BC8F86"/>
<path d="M83.957 73.1094L97.486 89.6654" stroke="#F3EADF" stroke-width="0.5" stroke-miterlimit="10" stroke-linecap="round" stroke-linejoin="round"/>
<path d="M142.595 74.1244L130.964 91.8626" stroke="#F3EADF" stroke-width="0.5" stroke-miterlimit="10" stroke-linecap="round" stroke-linejoin="round"/>
<path d="M94.7299 149.473L77.9418 175.124" stroke="#F3EADF" stroke-width="0.5" stroke-miterlimit="10" stroke-linecap="round" stroke-linejoin="round"/>
<path d="M131.328 149.971L146.587 174.085" stroke="#F3EADF" stroke-width="0.5" stroke-miterlimit="10" stroke-linecap="round" stroke-linejoin="round"/>
<path d="M53.7014 46.9555C53.7014 46.9555 43.6236 34.0196 34.0303 37.0491L35.6207 184.466C35.6207 184.466 43.8487 186.198 52.9088 198.017L53.7014 46.9555Z" fill="#BC8F86"/>
<path d="M34.5189 82.3598C34.5189 82.3598 45.0841 80.3916 53.4722 90.4968" stroke="#353637" stroke-width="0.5" stroke-miterlimit="10" stroke-linecap="round" stroke-linejoin="round"/>
<path d="M35.3064 155.432C35.3064 155.432 42.6986 153.128 53.0963 161.999" stroke="#353637" stroke-width="0.5" stroke-miterlimit="10" stroke-linecap="round" stroke-linejoin="round"/>
<path d="M38.3043 41.4817L38.4276 77.2834C38.4276 77.2834 45.2659 78.1521 50.0973 81.7963L49.8921 48.2111C49.8921 48.2111 45.7501 42.04 38.3043 41.4817Z" fill="#353637"/>
<path d="M38.1481 161.76L38.0999 182.762C38.0999 182.762 43.951 182.21 50.0714 190.218L49.7408 165.722C49.7408 165.722 44.5833 160.102 38.1481 161.76Z" fill="#353637"/>
<path d="M43.4847 134.736L44.5299 130.456L45.4824 134.788L48.3128 132.121L47.0821 136.321L50.6161 136.288L47.6735 138.751L50.562 141.363L47.0302 141.148L48.1693 145.409L45.3981 142.597L44.3539 146.878L43.4013 142.546L40.5712 145.211L41.8009 141.012L38.2666 141.045L41.2103 138.583L38.322 135.97L41.8526 136.186L40.7134 131.925L43.4847 134.736Z" fill="#353637"/>
<path d="M44.4945 98.1202C45.3489 96.3932 45.1145 92.9175 42.607 91.4027C43.5857 91.2674 44.623 91.527 45.5622 92.229C47.8248 93.9217 48.6646 97.545 47.4378 100.322C46.2111 103.1 43.3821 103.979 41.1194 102.286C40.1812 101.584 39.4881 100.551 39.0852 99.3826C41.1536 101.324 43.5635 100.228 44.4945 98.1202Z" fill="#353637"/>
<path d="M42.8856 115.297L44.9675 108.967L46.007 115.661L49.0981 118.024L45.6896 119.63L43.6077 125.96L42.5682 119.266L39.4761 116.903L42.8856 115.297Z" fill="#353637"/>
<path d="M40.0892 36.9989C40.0892 36.9989 45.7494 37.9553 52.9894 46.1004" stroke="#353637" stroke-width="0.5" stroke-miterlimit="10" stroke-linecap="round" stroke-linejoin="round"/>
<path d="M243.168 110.952H261.216C259.488 97.704 253.056 88.776 239.424 88.776C232.704 88.776 224.448 90.984 223.392 98.376L221.76 99.912L212.64 90.984C218.112 85.416 226.752 80.616 238.464 80.616C260.64 80.616 275.328 97.704 275.328 117.96C275.328 138.408 260.352 154.344 240.096 154.344C225.504 154.344 213.024 145.992 206.688 134.952C210.048 132.456 214.56 128.328 217.92 124.776C219.264 136.008 228.384 146.568 241.92 146.568C256.224 146.568 261.504 134.76 261.504 119.112C260.256 121.224 255.84 122.184 251.136 122.184H242.208C239.04 122.184 236.16 122.568 232.32 125.544L230.592 123.24L243.168 110.952ZM403.659 98.664L400.971 96.936C407.115 84.072 425.163 81 442.923 81C453.867 81 464.523 82.152 472.779 82.824C469.227 87.912 466.923 92.904 465.483 97.8C461.451 96.84 453.003 94.824 443.499 93.48V142.248C443.499 146.472 445.803 149.064 449.163 149.928L448.779 153H424.203L424.587 149.928C428.043 148.968 429.579 146.376 429.579 142.056V92.136C428.331 92.04 427.179 92.04 426.027 92.04C416.427 92.04 407.787 93.672 403.659 98.664Z" fill="#BC8F86"/>
<path d="M282.186 117.768L280.362 115.944C285.738 108.744 291.114 105 299.754 102.696C308.874 104.328 316.17 110.472 316.17 116.04C316.17 119.976 312.522 122.472 307.914 124.296C315.786 125.352 319.914 131.304 319.914 136.872C319.914 143.496 314.25 150.984 298.698 156.36C292.362 155.688 285.162 150.696 281.514 145.608L288.426 138.504C292.17 142.44 298.506 145.608 304.458 147.816C307.146 145.8 308.202 143.304 308.202 140.712C308.202 135.432 303.594 130.248 295.242 130.248C294.09 130.248 294.09 130.344 293.322 130.344L293.514 125.832C301.386 123.72 303.594 122.568 303.594 118.44C303.594 114.6 301.578 113.064 297.066 113.064C292.362 113.064 286.41 114.696 282.186 117.768ZM335.556 117.192C334.692 119.016 334.308 120.936 334.308 123.048C334.308 135.048 347.268 144.552 355.62 144.552C357.54 144.552 359.172 144.072 360.996 143.112C361.38 141.864 361.572 140.52 361.572 138.888C361.572 126.6 351.012 116.52 340.26 116.52C338.724 116.52 337.092 116.712 335.556 117.192ZM348.9 103.368C363.972 112.296 368.676 122.184 368.676 130.92C368.676 143.592 358.788 151.944 346.788 154.248C334.884 149.928 325.956 141.672 325.956 130.056C325.956 118.632 334.5 111.816 348.9 103.368ZM475.619 117.192C474.755 119.016 474.371 120.936 474.371 123.048C474.371 135.048 487.331 144.552 495.683 144.552C497.603 144.552 499.235 144.072 501.059 143.112C501.443 141.864 501.635 140.52 501.635 138.888C501.635 126.6 491.075 116.52 480.323 116.52C478.787 116.52 477.155 116.712 475.619 117.192ZM488.963 103.368C504.035 112.296 508.739 122.184 508.739 130.92C508.739 143.592 498.851 151.944 486.851 154.248C474.947 149.928 466.019 141.672 466.019 130.056C466.019 118.632 474.562 111.816 488.963 103.368ZM568.412 111.048V139.944C568.412 144.072 570.428 146.184 574.556 146.184L574.172 148.488L565.628 153.864L556.7 147.048V124.104L543.836 147.912L530.78 126.888V153H519.26V120.456C519.26 116.712 517.628 114.696 514.364 114.408L514.748 112.68L523.772 103.56C528.572 104.616 531.74 105.96 534.812 111.24L545.564 129.96L558.812 102.696L568.412 111.048Z" fill="#353637"/>
<path d="M113.623 111.993L125.646 111.547C124.168 102.764 119.662 96.9747 110.58 97.3116C106.103 97.4776 100.658 99.1527 100.137 104.103L99.0877 105.167L92.7912 99.4445C96.2991 95.5998 101.937 92.1885 109.739 91.899C124.513 91.351 134.721 102.372 135.221 115.867C135.727 129.49 126.143 140.476 112.648 140.977C102.927 141.338 94.4065 136.082 89.9125 128.883C92.0893 127.138 94.9932 124.276 97.1439 121.827C98.3169 129.276 104.654 136.086 113.671 135.751C123.201 135.398 126.427 127.401 126.04 116.976C125.261 118.414 122.342 119.163 119.209 119.279L113.261 119.499C111.15 119.578 109.241 119.905 106.756 121.982L105.548 120.49L113.623 111.993Z" fill="#BC8F86"/>
</svg>
