<svg width="405" height="592" viewBox="0 0 405 592" fill="none" xmlns="http://www.w3.org/2000/svg">
<path d="M352.3 591.417L21.8759 573.659C9.12829 572.974 -0.651079 562.086 0.0338953 549.335L28.3751 21.8759C29.0601 9.12829 39.9489 -0.651079 52.6997 0.0338953L383.124 17.7885C395.872 18.4735 405.651 29.3624 404.966 42.1132L376.622 569.572C375.94 582.323 365.048 592.102 352.3 591.417Z" fill="#726DC3"/>
<path d="M327.904 565.183L48.9267 550.194C36.1791 549.509 26.3997 538.621 27.0847 525.87L52.7567 48.1181C53.4417 35.3705 64.3305 25.5911 77.0813 26.2761L356.059 41.2651C368.806 41.9501 378.586 52.8389 377.901 65.5897L352.229 543.341C351.544 556.089 340.652 565.868 327.904 565.183Z" fill="#353637"/>
<path d="M87.7001 32.1564C86.8286 48.3546 72.9941 60.7806 56.7959 59.9091C40.5977 59.0376 28.1717 45.2031 29.0432 29.0049C29.9147 12.8067 43.7492 0.38067 59.9474 1.25216C76.1456 2.12366 88.5716 15.9582 87.7001 32.1564Z" fill="#726DC3"/>
<path d="M404.591 49.1759C403.719 65.3741 389.885 77.8001 373.687 76.9286C357.488 76.0571 345.062 62.2226 345.934 46.0244C346.805 29.8262 360.64 17.4002 376.838 18.2717C393.036 19.1432 405.462 32.981 404.591 49.1759Z" fill="#726DC3"/>
<path d="M60.0553 546.297C59.1838 562.495 45.3492 574.921 29.1511 574.049C12.9529 573.178 0.530071 559.343 1.39835 543.145C2.26984 526.947 16.1044 514.524 32.3026 515.392C48.5008 516.264 60.9268 530.099 60.0553 546.297Z" fill="#726DC3"/>
<path d="M376.95 563.328C376.078 579.526 362.244 591.949 346.046 591.081C329.847 590.209 317.425 576.375 318.293 560.176C319.164 543.978 332.999 531.555 349.197 532.424C365.395 533.295 377.821 547.133 376.95 563.328Z" fill="#726DC3"/>
<path d="M180.463 110.858L169.13 116.251L164.22 129.684L159.727 115.782L150.086 109.228L160.155 103.549L166.329 90.4023L169.95 103.906L180.463 110.858Z" fill="#726DC3"/>
<path d="M274.599 115.917L263.267 121.31L258.356 134.742L253.864 120.84L244.223 114.286L254.291 108.607L260.466 95.4609L264.087 108.964L274.599 115.917Z" fill="#726DC3"/>
<path d="M161.146 470.231L149.814 475.624L144.903 489.057L140.414 475.155L130.77 468.601L140.838 462.922L147.013 449.775L150.634 463.279L161.146 470.231Z" fill="#726DC3"/>
<path d="M90.3534 287.326L79.0208 292.719L74.1102 306.152L69.6176 292.247L59.9766 285.693L70.0453 280.017L76.2198 266.867L79.8408 280.374L90.3534 287.326Z" fill="#726DC3"/>
<path d="M71.7151 34.8207L62.9519 38.9916L59.154 49.3788L55.6809 38.6282L48.2266 33.5601L56.0121 29.1704L60.7876 19.002L63.5854 29.447L71.7151 34.8207Z" fill="#353637"/>
<path d="M383.512 50.0062L374.749 54.1772L370.951 64.5643L367.478 53.8138L360.023 48.7456L367.809 44.356L372.585 34.1875L375.382 44.6293L383.512 50.0062Z" fill="#353637"/>
<path d="M357.02 562.383L348.257 566.551L344.459 576.938L340.989 566.187L333.531 561.119L341.317 556.73L346.092 546.564L348.89 557.006L357.02 562.383Z" fill="#353637"/>
<path d="M45.2033 545.346L36.4402 549.517L32.6423 559.904L29.1724 549.154L21.7148 544.085L29.5004 539.696L34.2759 529.527L37.0769 539.969L45.2033 545.346Z" fill="#353637"/>
<path d="M345.287 301.018L333.954 306.411L329.044 319.843L324.554 305.938L314.91 299.384L324.979 293.708L331.153 280.559L334.774 294.065L345.287 301.018Z" fill="#726DC3"/>
<path d="M255.303 475.282L243.97 480.675L239.059 494.111L234.567 480.206L224.926 473.652L234.995 467.976L241.169 454.826L244.79 468.329L255.303 475.282Z" fill="#726DC3"/>
<path d="M214.131 78.3027L209.992 150.228" stroke="#F3EADF" stroke-width="0.5" stroke-miterlimit="10" stroke-linecap="round" stroke-linejoin="round"/>
<path d="M112.934 119.287L137.113 161.797" stroke="#F3EADF" stroke-width="0.5" stroke-miterlimit="10" stroke-linecap="round" stroke-linejoin="round"/>
<path d="M310.548 129.684L281.516 170.772" stroke="#F3EADF" stroke-width="0.5" stroke-miterlimit="10" stroke-linecap="round" stroke-linejoin="round"/>
<path d="M191.477 502.702L195.615 430.773" stroke="#F3EADF" stroke-width="0.5" stroke-miterlimit="10" stroke-linecap="round" stroke-linejoin="round"/>
<path d="M292.656 461.71L268.477 419.203" stroke="#F3EADF" stroke-width="0.5" stroke-miterlimit="10" stroke-linecap="round" stroke-linejoin="round"/>
<path d="M95.043 451.32L124.072 410.234" stroke="#F3EADF" stroke-width="0.5" stroke-miterlimit="10" stroke-linecap="round" stroke-linejoin="round"/>
<path d="M114.225 157.718C114.225 158.911 113.257 159.879 112.064 159.879C110.871 159.879 109.906 158.911 109.906 157.718C109.906 156.525 110.874 155.561 112.064 155.561C113.26 155.561 114.225 156.525 114.225 157.718Z" fill="#F3EADF"/>
<path d="M106.057 410.239C106.057 411.432 105.089 412.397 103.896 412.397C102.703 412.397 101.738 411.429 101.738 410.239C101.738 409.046 102.706 408.078 103.896 408.078C105.089 408.078 106.057 409.046 106.057 410.239Z" fill="#F3EADF"/>
<path d="M290.424 419.208C290.424 420.401 289.456 421.369 288.263 421.369C287.07 421.369 286.105 420.401 286.105 419.208C286.105 418.015 287.073 417.047 288.263 417.047C289.456 417.047 290.424 418.015 290.424 419.208Z" fill="#F3EADF"/>
<path d="M177.924 451.316C177.924 452.509 176.956 453.477 175.763 453.477C174.57 453.477 173.605 452.509 173.605 451.316C173.605 450.123 174.573 449.158 175.763 449.158C176.96 449.155 177.924 450.123 177.924 451.316Z" fill="#F3EADF"/>
<path d="M215.01 451.316C215.01 452.509 214.042 453.477 212.849 453.477C211.655 453.477 210.688 452.509 210.688 451.316C210.688 450.123 211.655 449.158 212.849 449.158C214.042 449.155 215.01 450.123 215.01 451.316Z" fill="#F3EADF"/>
<path d="M188.119 129.688C188.119 130.881 187.151 131.849 185.958 131.849C184.765 131.849 183.797 130.881 183.797 129.688C183.797 128.495 184.765 127.527 185.958 127.527C187.151 127.531 188.119 128.495 188.119 129.688Z" fill="#F3EADF"/>
<path d="M305.135 168.604C305.135 169.797 304.167 170.765 302.974 170.765C301.78 170.765 300.812 169.797 300.812 168.604C300.812 167.411 301.78 166.443 302.974 166.443C304.167 166.443 305.135 167.411 305.135 168.604Z" fill="#F3EADF"/>
<path d="M233.49 131.845C233.49 133.038 232.522 134.006 231.329 134.006C230.136 134.006 229.168 133.038 229.168 131.845C229.168 130.652 230.136 129.684 231.329 129.684C232.522 129.684 233.49 130.652 233.49 131.845Z" fill="#F3EADF"/>
<path d="M403.756 64.5586L380.676 494.111" stroke="#353637" stroke-width="0.5" stroke-miterlimit="10" stroke-linecap="round" stroke-linejoin="round"/>
<path d="M71.7109 1.20898L296.025 13.1173" stroke="#353637" stroke-width="0.5" stroke-miterlimit="10" stroke-linecap="round" stroke-linejoin="round"/>
<path d="M12.6089 315.396L2.78125 498.31" stroke="#353637" stroke-width="0.5" stroke-miterlimit="10" stroke-linecap="round" stroke-linejoin="round"/>
<path d="M37.5992 71.5215L24.2148 365.243" stroke="#353637" stroke-width="0.5" stroke-miterlimit="10" stroke-linecap="round" stroke-linejoin="round"/>
<path d="M161.141 567.498L280.577 574.097" stroke="#353637" stroke-width="0.5" stroke-miterlimit="10" stroke-linecap="round" stroke-linejoin="round"/>
<path d="M389.13 76.9805L380.676 232.691" stroke="#353637" stroke-width="0.5" stroke-miterlimit="10" stroke-linecap="round" stroke-linejoin="round"/>
<path d="M251.666 262.075C265.52 290.609 255.158 325.472 228.528 339.949C201.894 354.427 169.074 343.03 155.22 314.499C141.366 285.965 151.724 251.102 178.358 236.624C204.991 222.147 237.812 233.54 251.666 262.075Z" fill="#F3EADF"/>
<path d="M172.712 246.749L155.176 188.176L189.724 237.597C189.724 237.597 186.247 247.627 172.712 246.749Z" fill="#F3EADF"/>
<path d="M234.305 329.492L249.709 383.917L217.277 338.619C217.277 338.619 221.014 329.097 234.305 329.492Z" fill="#F3EADF"/>
<path d="M241.993 255.817L295.186 237.844L250.904 273.958C250.904 273.958 241.597 270.166 241.993 255.817Z" fill="#F3EADF"/>
<path d="M165.609 320.378L121.031 333.924L156.64 302.264C156.64 302.264 164.934 306.579 165.609 320.378Z" fill="#F3EADF"/>
<path d="M208.949 236.117L234.2 183.332L227.225 242.362C227.225 242.362 218.201 246.649 208.949 236.117Z" fill="#F3EADF"/>
<path d="M198.208 340.176L173.797 390.356L179.929 333.944C179.929 333.944 188.853 329.969 198.208 340.176Z" fill="#F3EADF"/>
<path d="M252.52 294.543L300.696 322.196L246.664 313.896C246.664 313.896 242.801 304.232 252.52 294.543Z" fill="#F3EADF"/>
<path d="M154.539 281.875L105.16 253.836L160.389 262.522C160.389 262.522 164.396 272.234 154.539 281.875Z" fill="#F3EADF"/>
<path d="M188.208 235.864C188.208 235.864 196.18 223.072 194.498 215.984C192.813 208.896 183.914 197.564 189.664 188.62C195.414 179.677 193.482 176.535 193.482 176.535C193.482 176.535 197.807 181.513 195.633 189.54C193.459 197.567 202.267 204.886 204.184 207.108C207.12 210.514 214.616 221.866 206.383 234.935C198.151 248.004 184.313 243.421 188.208 235.864Z" fill="#F3EADF"/>
<path d="M218.607 340.32C218.607 340.32 210.584 352.492 212.24 359.21C213.896 365.931 222.746 376.646 216.961 385.156C211.175 393.665 213.095 396.636 213.095 396.636C213.095 396.636 208.792 391.928 210.995 384.303C213.201 376.679 204.425 369.771 202.518 367.668C199.595 364.449 192.147 353.708 200.431 341.275C208.712 328.846 222.53 333.136 218.607 340.32Z" fill="#F3EADF"/>
<path d="M253.103 271.118C253.103 271.118 264.606 279.791 270.893 278.096C277.18 276.401 287.146 267.075 295.192 273.33C303.235 279.582 306.007 277.565 306.007 277.565C306.007 277.565 301.633 282.103 294.456 279.678C287.278 277.25 280.885 286.531 278.933 288.544C275.942 291.625 265.938 299.456 254.187 290.503C242.436 281.547 246.321 266.863 253.103 271.118Z" fill="#F3EADF"/>
<path d="M154.422 303.971C154.422 303.971 142.182 295.356 135.455 297.086C128.727 298.816 118.031 308.197 109.474 301.987C100.917 295.774 97.9453 297.807 97.9453 297.807C97.9453 297.807 102.64 293.243 110.294 295.633C117.948 298.022 124.83 288.703 126.923 286.68C130.136 283.58 140.864 275.694 153.367 284.589C165.873 293.478 161.645 308.191 154.422 303.971Z" fill="#F3EADF"/>
<path d="M227.439 239.753C227.439 239.753 241.965 236.302 245.65 229.79C249.339 223.278 250.796 208.186 261.077 205.906C271.358 203.626 272.143 199.848 272.143 199.848C272.143 199.848 271.798 206.791 264.708 211.09C257.617 215.39 258.861 227.44 258.697 230.53C258.446 235.26 255.97 249.311 241.071 252.771C226.175 256.225 219.445 242.403 227.439 239.753Z" fill="#F3EADF"/>
<path d="M179.729 336.068C179.729 336.068 165.959 338.634 162.733 344.609C159.504 350.581 158.826 364.763 149.072 366.422C139.319 368.085 138.746 371.616 138.746 371.616C138.746 371.616 138.746 365.075 145.345 361.354C151.944 357.633 150.175 346.195 150.185 343.288C150.201 338.834 151.905 325.684 166.036 323.127C180.156 320.574 187.273 333.946 179.729 336.068Z" fill="#F3EADF"/>
<path d="M248.037 313.631C248.037 313.631 249.539 327.668 254.633 330.845C259.727 334.019 272.201 334.412 273.127 344.358C274.053 354.305 277.14 354.816 277.14 354.816C277.14 354.816 271.368 354.958 268.451 348.285C265.535 341.612 255.34 343.667 252.774 343.722C248.844 343.802 237.335 342.339 235.862 327.935C234.386 313.525 246.58 305.955 248.037 313.631Z" fill="#F3EADF"/>
<path d="M158.273 262.499C158.273 262.499 155.906 247.722 150.311 244.12C144.718 240.519 131.421 239.425 129.89 228.964C128.359 218.5 125.047 217.799 125.047 217.799C125.047 217.799 131.179 217.966 134.653 225.112C138.122 232.257 148.857 230.662 151.587 230.749C155.765 230.881 168.094 233.042 170.451 248.201C172.805 263.358 160.244 270.616 158.273 262.499Z" fill="#F3EADF"/>
</svg>
