<svg width="359" height="616" viewBox="0 0 359 616" fill="none" xmlns="http://www.w3.org/2000/svg">
<g clip-path="url(#clip0_1142_3330)">
<path d="M372.961 631.398H-13.9628C-14.7499 631.398 -15.3867 630.76 -15.3867 629.973V-13.9752C-15.3867 -14.7611 -14.7499 -15.4004 -13.9628 -15.4004H372.963C373.748 -15.4004 374.387 -14.7629 374.387 -13.9752V629.975C374.385 630.76 373.748 631.398 372.961 631.398Z" fill="#DCD9CD"/>
<path d="M44.9394 597.794C30.1379 597.794 18.0938 585.743 18.0938 570.926V45.0717C18.0938 30.2565 30.1361 18.2012 44.9394 18.2012H313.879C328.68 18.2012 340.724 30.2565 340.724 45.0717V570.926C340.724 585.741 328.68 597.794 313.879 597.794H44.9394Z" stroke="#726DC3" stroke-width="0.5755" stroke-miterlimit="10"/>
<path d="M318.408 575.515C318.408 573.824 317.038 572.453 315.349 572.453C313.659 572.453 312.289 573.824 312.289 575.515C312.289 577.207 313.659 578.578 315.349 578.578C317.037 578.578 318.408 577.207 318.408 575.515Z" fill="#353637"/>
<path d="M46.9548 575.515C46.9548 573.824 45.5852 572.453 43.8954 572.453C42.2055 572.453 40.8359 573.824 40.8359 575.515C40.8359 577.207 42.2055 578.578 43.8954 578.578C45.5852 578.578 46.9548 577.207 46.9548 575.515Z" fill="#353637"/>
<path d="M24.1562 549.95V45.0716C24.1562 33.5831 33.4612 24.2695 44.9391 24.2695H313.878C325.356 24.2695 334.663 33.5831 334.663 45.0716V549.95C334.663 551.578 333.344 552.898 331.718 552.898H27.0999C25.4734 552.898 24.1562 551.578 24.1562 549.95Z" fill="#353637"/>
<mask id="mask0_1142_3330" style="mask-type:luminance" maskUnits="userSpaceOnUse" x="24" y="24" width="311" height="529">
<path d="M24.1562 549.95V45.0716C24.1562 33.5831 33.4612 24.2695 44.9391 24.2695H313.878C325.356 24.2695 334.663 33.5831 334.663 45.0716V549.95C334.663 551.578 333.344 552.898 331.718 552.898H27.0999C25.4734 552.898 24.1562 551.578 24.1562 549.95Z" fill="white"/>
</mask>
<g mask="url(#mask0_1142_3330)">
<path d="M220.79 -95.2891L137.734 711.285" stroke="#DCD9CD" stroke-width="0.1726" stroke-miterlimit="10"/>
<path d="M582.176 349.566L-223.652 266.434" stroke="#DCD9CD" stroke-width="0.1726" stroke-miterlimit="10"/>
<path d="M-76.2773 -6.56055L434.801 622.556" stroke="#DCD9CD" stroke-width="0.1726" stroke-miterlimit="10"/>
<path d="M493.531 52.2227L-135.004 563.774" stroke="#DCD9CD" stroke-width="0.1726" stroke-miterlimit="10"/>
<path d="M65.1367 -80.998L293.391 696.996" stroke="#DCD9CD" stroke-width="0.1726" stroke-miterlimit="10"/>
<path d="M567.9 193.766L-209.375 422.232" stroke="#DCD9CD" stroke-width="0.1726" stroke-miterlimit="10"/>
<path d="M-176.246 113.711L534.772 502.286" stroke="#DCD9CD" stroke-width="0.1726" stroke-miterlimit="10"/>
<path d="M373.368 -47.8379L-14.8477 663.837" stroke="#DCD9CD" stroke-width="0.1726" stroke-miterlimit="10"/>
<path d="M138.609 -95.377L219.912 711.375" stroke="#DCD9CD" stroke-width="0.1726" stroke-miterlimit="10"/>
<path d="M582.265 267.309L-223.742 348.686" stroke="#DCD9CD" stroke-width="0.1726" stroke-miterlimit="10"/>
<path d="M-134.449 51.5391L492.973 564.458" stroke="#DCD9CD" stroke-width="0.1726" stroke-miterlimit="10"/>
<path d="M435.481 -6.00195L-76.9609 622.001" stroke="#DCD9CD" stroke-width="0.1726" stroke-miterlimit="10"/>
<path d="M-10.957 -49.9355L369.484 665.933" stroke="#DCD9CD" stroke-width="0.1726" stroke-miterlimit="10"/>
<path d="M536.867 117.6L-178.34 498.395" stroke="#DCD9CD" stroke-width="0.1726" stroke-miterlimit="10"/>
<path d="M-208.109 189.531L566.63 426.465" stroke="#DCD9CD" stroke-width="0.1726" stroke-miterlimit="10"/>
<path d="M297.621 -79.7305L60.9062 695.729" stroke="#DCD9CD" stroke-width="0.1726" stroke-miterlimit="10"/>
</g>
<mask id="mask1_1142_3330" style="mask-type:luminance" maskUnits="userSpaceOnUse" x="24" y="24" width="311" height="529">
<path d="M24.1562 549.95V45.0716C24.1562 33.5831 33.4612 24.2695 44.9391 24.2695H313.878C325.356 24.2695 334.663 33.5831 334.663 45.0716V549.95C334.663 551.578 333.344 552.898 331.718 552.898H27.0999C25.4734 552.898 24.1562 551.578 24.1562 549.95Z" fill="white"/>
</mask>
<g mask="url(#mask1_1142_3330)">
<path d="M230.121 58.6184C230.02 61.5647 230.915 64.5347 232.63 66.9323C234.344 69.3282 236.866 71.1373 239.683 71.9902C240.009 82.4447 246.384 92.3939 255.87 96.7836C263.2 100.174 271.674 100.731 279.629 99.3388V24.6074H276.309C276.309 24.6074 274.744 30.5907 262.072 31.6881C262.072 31.6881 263.874 57.6785 230.121 58.6184Z" fill="#DCD9CD" stroke="#726DC3" stroke-width="0.5755" stroke-miterlimit="10"/>
<path d="M279.631 92.4245C277.169 93.1652 274.616 93.4893 271.844 93.4676C269.335 93.4495 266.813 93.0928 264.406 92.3774C260.77 91.2981 257.475 88.9711 255.44 85.7676C253.406 82.564 252.706 78.4877 253.786 74.8477C254.866 71.2096 257.777 68.1129 261.414 67.0318C265.049 65.9506 269.293 67.0281 271.815 69.864C272.902 71.0864 273.671 72.6185 273.84 74.2447C274.008 75.8709 273.706 77.7524 272.611 78.9657C271.717 79.9581 270.527 80.6318 269.237 80.9722C268.07 81.2801 266.764 81.3181 265.604 80.9885C264.444 80.6571 263.221 79.8422 262.754 78.571" stroke="#353637" stroke-width="0.4604" stroke-miterlimit="10"/>
<path d="M256.496 81.7988C257.985 85.3464 261.07 88.1841 264.726 89.3703" stroke="#353637" stroke-width="0.4604" stroke-miterlimit="10"/>
<path d="M252.227 62.4704C256.019 59.5983 260.772 58.0228 265.526 58.0572C270.281 58.0934 276.051 60.1235 279.633 65.2158" stroke="#353637" stroke-width="0.4604" stroke-miterlimit="10"/>
<path d="M269.297 52.0391C273.066 52.0898 276.802 53.5186 279.644 55.9941" stroke="#353637" stroke-width="0.4604" stroke-miterlimit="10"/>
<path d="M272.004 48.3984C273.703 48.5632 275.375 49.0087 276.932 49.7077" stroke="#353637" stroke-width="0.4604" stroke-miterlimit="10"/>
<path d="M234.254 58.3906C234.267 61.5634 236.154 64.66 238.969 66.1215" stroke="#353637" stroke-width="0.4604" stroke-miterlimit="10"/>
<path d="M267.869 83.2702C265.479 83.7899 262.823 82.9695 261.198 81.2075C259.575 79.4455 259.051 76.816 259.883 74.6049C260.105 74.0127 260.42 73.4477 260.84 72.9642C261.902 71.74 263.653 71.1062 265.294 71.3507C266.933 71.5951 268.403 72.7125 269.025 74.1884" stroke="#353637" stroke-width="0.4604" stroke-miterlimit="10"/>
<path d="M303.714 120.992C302.32 126.097 301.982 131.574 303.421 136.666C304.861 141.758 308.201 146.425 312.917 148.881C312.434 152.176 313.547 155.778 315.872 158.178C318.197 160.577 321.667 161.832 325.003 161.479C323.434 163.109 322.711 165.92 323.693 167.953C323.952 168.487 324.306 168.973 324.71 169.411C325.656 170.443 326.87 171.233 328.202 171.682C323.32 174.09 319.423 178.663 317.779 183.824C316.134 188.985 316.525 194.711 318.615 199.711C320.704 204.71 324.44 208.974 328.998 211.944C330.869 213.165 332.871 214.172 334.867 215.177V120C334.867 120 326.695 121.932 318.68 121.932C310.663 121.932 303.714 120.992 303.714 120.992Z" fill="#726DC3" stroke="#DCD9CD" stroke-width="0.5755" stroke-miterlimit="10"/>
<path d="M325.651 137.161C327.012 137.627 328.578 137.006 329.516 135.914C331.072 134.101 330.958 131.16 329.442 129.313C327.925 127.466 325.255 126.758 322.945 127.361C320.634 127.964 318.725 129.753 317.714 131.919C316.623 134.255 316.531 137.036 317.462 139.439C318.394 141.843 320.337 143.835 322.717 144.821C322.315 146.844 322.724 149.237 324.059 150.807C325.394 152.375 327.468 153.286 329.525 153.21" stroke="#353637" stroke-width="0.4604" stroke-miterlimit="10"/>
<path d="M306.901 124.289C305.62 128.275 305.387 132.474 306.579 136.489C307.771 140.504 310.601 143.463 313.99 145.576" stroke="#353637" stroke-width="0.4604" stroke-miterlimit="10"/>
<path d="M334.108 208.839C330.065 207.234 326.506 204.36 324.688 200.617" stroke="#353637" stroke-width="0.4604" stroke-miterlimit="10"/>
<path d="M330.396 169.57C329.589 170.237 329.065 171.233 328.969 172.276C328.875 173.319 329.211 174.393 329.884 175.195" stroke="#353637" stroke-width="0.4604" stroke-miterlimit="10"/>
<path d="M327.055 162.458C326.011 161.542 325.394 160.159 325.41 158.77" stroke="#353637" stroke-width="0.4604" stroke-miterlimit="10"/>
<path d="M312.571 126.562C311.073 128.806 310.399 131.586 310.699 134.268" stroke="#353637" stroke-width="0.4604" stroke-miterlimit="10"/>
<path d="M326.689 130.862C326.088 130.485 325.354 130.324 324.65 130.416C324.196 130.476 323.751 130.639 323.383 130.916C322.528 131.561 322.211 132.741 322.347 133.806C322.428 134.451 322.699 135.128 323.271 135.434" stroke="#353637" stroke-width="0.4604" stroke-miterlimit="10"/>
<path d="M334.396 134.646C334.26 137.261 332.598 139.741 330.233 140.858C327.868 141.975 324.899 141.684 322.797 140.128" stroke="#353637" stroke-width="0.4604" stroke-miterlimit="10"/>
<path d="M169.719 23.7439C169.753 29.8232 173.402 35.5511 178.456 38.923C183.509 42.295 189.789 43.4938 195.853 43.1697C196.485 47.8817 200.25 52.1265 204.778 53.5607C209.307 54.995 214.315 54.2471 218.672 52.3547C223.908 57.8273 231.707 60.071 239.277 60.0185C246.983 59.966 254.815 57.6335 260.708 52.6643C266.6 47.6952 270.313 39.9372 269.555 32.2625C272.596 32.4454 275.48 31.7282 278.201 30.3592C280.922 28.9883 283.515 26.4494 284.756 23.666L169.719 23.7439Z" fill="#726DC3" stroke="#DCD9CD" stroke-width="0.5755" stroke-miterlimit="10"/>
<path d="M218.816 52.1906C218.729 52.3627 218.467 52.2486 218.328 52.1146C214.708 48.6539 212.871 43.4167 213.537 38.4512" stroke="#353637" stroke-width="0.4604" stroke-miterlimit="10"/>
<path d="M226.434 38.0717C227.516 34.9425 230.405 32.514 233.671 31.9888C236.936 31.4619 240.441 32.8617 242.449 35.493C243.688 37.1174 244.369 39.2398 243.967 41.2445C243.565 43.2492 241.957 45.042 239.938 45.3553C237.921 45.6686 235.699 44.2361 235.42 42.2115" stroke="#353637" stroke-width="0.4604" stroke-miterlimit="10"/>
<path d="M224.664 51.9121C230.436 55.5177 237.797 56.4611 244.291 54.4275" stroke="#353637" stroke-width="0.4604" stroke-miterlimit="10"/>
<path d="M252.27 51.6775C259.134 48.6533 263.789 41.1941 263.49 33.6914" stroke="#353637" stroke-width="0.4604" stroke-miterlimit="10"/>
<path d="M194.453 40.1992C195.251 42.1206 197.183 43.5186 199.257 43.6744" stroke="#353637" stroke-width="0.4604" stroke-miterlimit="10"/>
<path d="M173.176 23.7441C173.404 27.1595 174.764 30.4898 176.991 33.0885C179.219 35.6872 182.302 37.5379 185.641 38.2822" stroke="#353637" stroke-width="0.4604" stroke-miterlimit="10"/>
<path d="M207.828 48.9534C207.902 49.0421 208.025 49.0674 208.139 49.0856C210.497 49.4659 212.972 49.0747 215.098 47.9863" stroke="#353637" stroke-width="0.4604" stroke-miterlimit="10"/>
<path d="M194.566 23.6738C195.288 25.5373 196.803 27.0258 198.554 27.9838C200.307 28.9436 202.288 29.4108 204.271 29.6499C207.231 30.0066 209.822 29.8672 212.67 28.9835C215.517 28.0997 218.311 26.1874 219.349 23.8314" stroke="#353637" stroke-width="0.4604" stroke-miterlimit="10"/>
<path d="M243.984 26.3359C247.107 27.3863 249.812 29.63 251.42 32.5076C253.029 35.3851 253.525 38.8675 252.783 42.0801" stroke="#353637" stroke-width="0.4604" stroke-miterlimit="10"/>
<path d="M239.303 36.3478C237.327 34.7361 234.346 34.4862 232.131 35.7502C229.915 37.0142 228.609 39.7053 228.987 42.2297C229.365 44.7541 231.402 46.9454 233.892 47.5031" stroke="#353637" stroke-width="0.4604" stroke-miterlimit="10"/>
<path d="M254.887 28.6172C256.235 29.8939 257.233 31.54 257.744 33.3256" stroke="#353637" stroke-width="0.4604" stroke-miterlimit="10"/>
<path d="M184.699 23.9492C185.446 27.0169 188.019 29.5649 191.093 30.282" stroke="#353637" stroke-width="0.4604" stroke-miterlimit="10"/>
<path d="M261.812 23.707C256.808 30.8511 254.545 40.076 256.573 48.5619C258.601 57.0479 265.201 64.5035 273.634 66.7165C271.242 69.9942 270.622 76.2166 271.685 80.1336C272.749 84.0506 275.664 87.4189 279.386 89.0325C274.403 100.048 278.644 115.76 288.537 122.701C298.43 129.642 312.366 129.561 322.882 123.605C322.882 124.997 323.149 127.862 324.503 129.76C327.057 133.348 330.817 134.318 335.226 133.73V23.707H261.812Z" fill="#DCD9CD" stroke="#DCD9CD" stroke-width="0.5755" stroke-miterlimit="10"/>
<path d="M278.957 90.1516C277.021 96.9045 278.854 105.662 283.138 111.126C287.423 116.587 294.151 119.865 300.931 120.023C304.043 120.095 307.194 119.55 310.015 118.181C314.923 115.801 319.271 111.29 319.973 104.711C320.675 98.1196 317.644 92.5275 313.161 89.371C308.676 86.2146 302.306 86.1458 297.891 89.4073C293.477 92.6687 291.457 99.1283 293.399 104.384" stroke="#353637" stroke-width="0.4604" stroke-miterlimit="10"/>
<path d="M290.206 23.8867C286.875 30.7139 286.088 38.9391 288.94 45.9818C291.791 53.0245 298.529 58.5713 306.097 59.1563C305.313 62.6604 305.462 66.9957 307.501 69.9512C309.705 73.1438 313.318 74.8986 316.904 74.7737C316.904 79.0547 318.431 83.553 322.431 86.2785C325.926 88.6598 331.548 88.85 335.22 87.4139" stroke="#353637" stroke-width="0.4604" stroke-miterlimit="10"/>
<path d="M332.121 31.3014C330.536 29.5955 327.629 28.9943 325.356 29.6697C323.084 30.3434 321.273 32.1833 320.491 34.3455C319.71 36.5078 319.599 38.9435 320.522 41.0532C321.325 42.8913 323.647 44.7058 325.993 44.7058" stroke="#353637" stroke-width="0.4604" stroke-miterlimit="10"/>
<path d="M313.261 100.049C314.415 103.939 312.667 108.45 309.293 110.701C305.919 112.952 301.213 112.881 297.801 110.69" stroke="#353637" stroke-width="0.4604" stroke-miterlimit="10"/>
<path d="M273.935 60.6016C273.79 62.4396 273.955 64.3303 274.648 66.038C275.341 67.7475 276.598 69.2632 278.263 70.0564" stroke="#353637" stroke-width="0.4604" stroke-miterlimit="10"/>
<path d="M281.481 85.7988C280.001 87.6043 280.136 90.5271 281.779 92.1859" stroke="#353637" stroke-width="0.4604" stroke-miterlimit="10"/>
<path d="M310.483 122.66C302.306 126.15 292.214 125.176 282.742 116.816" stroke="#353637" stroke-width="0.4604" stroke-miterlimit="10"/>
<path d="M329.91 121.932C329.973 123.187 330.536 124.407 331.448 125.271C332.36 126.133 333.61 126.627 334.866 126.618" stroke="#353637" stroke-width="0.4604" stroke-miterlimit="10"/>
<path d="M314.094 30.3867C311.8 35.0281 311.813 40.7434 314.129 45.3757C316.445 50.0081 321.008 53.4434 326.095 54.3869C325.507 57.3876 325.509 60.8374 327.025 63.4922C328.539 66.147 331.827 68.0901 334.879 67.9996" stroke="#353637" stroke-width="0.4604" stroke-miterlimit="10"/>
<path d="M280.6 24.0273C278.037 29.3044 276.638 35.2406 277.241 41.0772C277.843 46.9138 280.566 52.6236 285.145 56.2871" stroke="#353637" stroke-width="0.4604" stroke-miterlimit="10"/>
<path d="M321.676 124.255C325.7 121.926 329.358 117.118 330.223 112.68" stroke="#353637" stroke-width="0.4604" stroke-miterlimit="10"/>
<path d="M304.477 52.6367C304.477 55.5414 305.524 58.3357 307.704 60.038C308.846 60.9289 310.31 61.4813 312.045 61.8054" stroke="#353637" stroke-width="0.4604" stroke-miterlimit="10"/>
<path d="M335.225 82.0177C331.921 83.6512 327.787 83.4665 324.641 81.5469" stroke="#353637" stroke-width="0.4604" stroke-miterlimit="10"/>
<path d="M275.523 24.0254C273.756 26.5009 272.666 29.4563 272.402 32.4878" stroke="#353637" stroke-width="0.4604" stroke-miterlimit="10"/>
<path d="M268.029 23.707C265.046 27.1532 262.459 32.0789 261.784 36.5881C261.29 39.8967 261.176 43.2922 261.822 46.5754C262.468 49.8586 263.906 53.0313 266.224 55.4416" stroke="#353637" stroke-width="0.4604" stroke-miterlimit="10"/>
<path d="M261.812 23.707C256.808 30.8511 254.545 40.076 256.573 48.5619C258.601 57.0479 265.201 64.5035 273.634 66.7165C271.242 69.9942 270.622 76.2166 271.685 80.1336C272.749 84.0506 275.664 87.4189 279.386 89.0325C274.403 100.048 278.644 115.76 288.537 122.701C298.43 129.642 312.366 129.561 322.882 123.605C322.882 124.997 323.149 127.862 324.503 129.76C327.057 133.348 330.817 134.318 335.226 133.73V23.707H261.812Z" stroke="#726DC3" stroke-width="0.5755" stroke-miterlimit="10"/>
</g>
<mask id="mask2_1142_3330" style="mask-type:luminance" maskUnits="userSpaceOnUse" x="24" y="24" width="311" height="529">
<path d="M24.1562 549.95V45.0716C24.1562 33.5831 33.4612 24.2695 44.9391 24.2695H313.878C325.356 24.2695 334.663 33.5831 334.663 45.0716V549.95C334.663 551.578 333.344 552.898 331.718 552.898H27.0999C25.4734 552.898 24.1562 551.578 24.1562 549.95Z" fill="white"/>
</mask>
<g mask="url(#mask2_1142_3330)">
<path d="M129.284 517.79C129.385 514.843 128.487 511.873 126.774 509.476C125.061 507.08 122.539 505.271 119.722 504.418C119.396 493.963 113.02 484.014 103.532 479.624C96.2032 476.234 87.7287 475.677 79.7734 477.069V551.801H83.0934C83.0934 551.801 84.6584 545.817 97.3304 544.72C97.3304 544.72 95.5302 518.729 129.284 517.79Z" fill="#DCD9CD" stroke="#726DC3" stroke-width="0.5755" stroke-miterlimit="10"/>
<path d="M79.7734 483.985C82.2358 483.245 84.7887 482.92 87.5604 482.94C90.0699 482.958 92.5938 483.315 94.9983 484.03C98.6348 485.11 101.929 487.437 103.965 490.64C105.998 493.844 106.699 497.92 105.619 501.56C104.538 505.198 101.627 508.295 97.9908 509.376C94.356 510.457 90.1115 509.38 87.5894 506.544C86.5038 505.322 85.7331 503.789 85.5648 502.163C85.3966 500.537 85.6987 498.656 86.7933 497.442C87.6871 496.45 88.8776 495.776 90.1676 495.436C91.3345 495.128 92.6408 495.09 93.8005 495.419C94.9603 495.751 96.1815 496.566 96.6501 497.839" stroke="#353637" stroke-width="0.4604" stroke-miterlimit="10"/>
<path d="M102.906 494.609C101.417 491.061 98.3323 488.223 94.6758 487.037" stroke="#353637" stroke-width="0.4604" stroke-miterlimit="10"/>
<path d="M107.18 513.939C103.388 516.811 98.6348 518.386 93.8801 518.352C89.1254 518.316 83.3557 516.286 79.7734 511.193" stroke="#353637" stroke-width="0.4604" stroke-miterlimit="10"/>
<path d="M90.1088 524.371C86.3401 524.32 82.604 522.892 79.7617 520.416" stroke="#353637" stroke-width="0.4604" stroke-miterlimit="10"/>
<path d="M87.3971 528.009C85.6983 527.844 84.0265 527.398 82.4688 526.699" stroke="#353637" stroke-width="0.4604" stroke-miterlimit="10"/>
<path d="M125.151 518.018C125.138 514.845 123.251 511.749 120.438 510.287" stroke="#353637" stroke-width="0.4604" stroke-miterlimit="10"/>
<path d="M91.5371 493.139C93.9271 492.619 96.5831 493.439 98.2078 495.201C99.8307 496.963 100.355 499.593 99.5231 501.804C99.3006 502.396 98.9858 502.961 98.566 503.445C97.504 504.669 95.7527 505.303 94.1135 505.058C92.4743 504.814 91.007 503.696 90.3828 502.222" stroke="#353637" stroke-width="0.4604" stroke-miterlimit="10"/>
<path d="M55.6925 455.417C57.0856 450.312 57.424 444.836 55.9856 439.743C54.5472 434.651 51.2056 429.984 46.4889 427.529C46.9719 424.233 45.8592 420.631 43.5344 418.231C41.2095 415.832 37.7375 414.577 34.4031 414.93C35.9717 413.3 36.6954 410.49 35.713 408.456C35.4543 407.922 35.0996 407.436 34.6962 406.998C33.7499 405.966 32.5359 405.176 31.2043 404.729C36.0857 402.321 39.9828 397.748 41.6274 392.587C43.272 387.426 42.8812 381.7 40.7915 376.7C38.7019 371.7 34.9658 367.437 30.4083 364.467C28.5375 363.246 26.5347 362.239 24.5391 361.234V456.407C24.5391 456.407 32.7096 454.475 40.7264 454.475C48.7432 454.475 55.6925 455.417 55.6925 455.417Z" fill="#726DC3" stroke="#DCD9CD" stroke-width="0.5755" stroke-miterlimit="10"/>
<path d="M33.754 439.248C32.3935 438.783 30.8267 439.404 29.8895 440.496C28.3335 442.309 28.4475 445.25 29.9636 447.097C31.4798 448.944 34.1502 449.652 36.4607 449.049C38.7711 448.446 40.6798 446.657 41.6912 444.491C42.7822 442.155 42.8744 439.373 41.9427 436.97C41.0109 434.567 39.0678 432.575 36.6886 431.588C37.0903 429.565 36.6814 427.173 35.3462 425.603C34.0109 424.035 31.9375 423.124 29.8804 423.2" stroke="#353637" stroke-width="0.4604" stroke-miterlimit="10"/>
<path d="M52.5027 452.121C53.7836 448.136 54.017 443.936 52.8247 439.921C51.6324 435.906 48.8046 432.947 45.4141 430.834" stroke="#353637" stroke-width="0.4604" stroke-miterlimit="10"/>
<path d="M25.2969 367.57C29.3405 369.175 32.8993 372.049 34.7176 375.792" stroke="#353637" stroke-width="0.4604" stroke-miterlimit="10"/>
<path d="M29.0078 406.84C29.8147 406.173 30.3394 405.177 30.4353 404.134C30.5294 403.091 30.1929 402.017 29.5198 401.215" stroke="#353637" stroke-width="0.4604" stroke-miterlimit="10"/>
<path d="M32.3516 413.951C33.3955 414.866 34.0125 416.251 33.9962 417.64" stroke="#353637" stroke-width="0.4604" stroke-miterlimit="10"/>
<path d="M46.832 449.846C48.3301 447.602 49.0049 444.823 48.7046 442.141" stroke="#353637" stroke-width="0.4604" stroke-miterlimit="10"/>
<path d="M32.7148 445.549C33.3155 445.926 34.0501 446.085 34.7539 445.995C35.208 445.935 35.6531 445.772 36.0203 445.495C36.8761 444.85 37.1927 443.669 37.057 442.605C36.9756 441.96 36.706 441.283 36.1325 440.977" stroke="#353637" stroke-width="0.4604" stroke-miterlimit="10"/>
<path d="M25.0078 441.764C25.1435 439.149 26.8062 436.67 29.1709 435.553C31.5356 434.435 34.5046 434.727 36.6069 436.283" stroke="#353637" stroke-width="0.4604" stroke-miterlimit="10"/>
<path d="M189.688 552.666C189.654 546.587 186.004 540.859 180.953 537.487C175.9 534.115 169.62 532.916 163.555 533.24C162.924 528.528 159.159 524.284 154.63 522.849C150.102 521.415 145.094 522.161 140.737 524.055C135.501 518.583 127.701 516.339 120.131 516.392C112.426 516.444 104.594 518.777 98.7009 523.746C92.8081 528.715 89.0956 536.473 89.8536 544.148C86.8123 543.963 83.9284 544.682 81.2073 546.051C78.4861 547.422 75.8935 549.961 74.6523 552.744L189.688 552.666Z" fill="#726DC3" stroke="#DCD9CD" stroke-width="0.5755" stroke-miterlimit="10"/>
<path d="M140.59 524.22C140.677 524.048 140.939 524.162 141.078 524.296C144.699 527.757 146.535 532.994 145.869 537.961" stroke="#353637" stroke-width="0.4604" stroke-miterlimit="10"/>
<path d="M132.973 538.338C131.891 541.468 129.002 543.896 125.736 544.421C122.47 544.946 118.966 543.548 116.958 540.917C115.718 539.293 115.038 537.17 115.44 535.166C115.841 533.161 117.45 531.368 119.469 531.055C121.486 530.741 123.708 532.174 123.987 534.199" stroke="#353637" stroke-width="0.4604" stroke-miterlimit="10"/>
<path d="M134.744 524.5C128.972 520.894 121.611 519.951 115.117 521.984" stroke="#353637" stroke-width="0.4604" stroke-miterlimit="10"/>
<path d="M107.137 524.732C100.272 527.757 95.619 535.216 95.9158 542.719" stroke="#353637" stroke-width="0.4604" stroke-miterlimit="10"/>
<path d="M164.956 536.213C164.158 534.292 162.226 532.894 160.152 532.738" stroke="#353637" stroke-width="0.4604" stroke-miterlimit="10"/>
<path d="M186.231 552.667C186.003 549.252 184.643 545.921 182.416 543.323C180.188 540.724 177.105 538.873 173.766 538.129" stroke="#353637" stroke-width="0.4604" stroke-miterlimit="10"/>
<path d="M151.582 527.458C151.508 527.369 151.385 527.344 151.271 527.326C148.913 526.945 146.438 527.335 144.312 528.425" stroke="#353637" stroke-width="0.4604" stroke-miterlimit="10"/>
<path d="M164.842 552.738C164.12 550.875 162.605 549.386 160.854 548.428C159.101 547.468 157.12 547.001 155.137 546.76C152.177 546.404 149.586 546.543 146.738 547.427C143.891 548.31 141.097 550.223 140.059 552.579" stroke="#353637" stroke-width="0.4604" stroke-miterlimit="10"/>
<path d="M115.42 550.076C112.298 549.026 109.593 546.782 107.984 543.905C106.376 541.027 105.88 537.545 106.622 534.334" stroke="#353637" stroke-width="0.4604" stroke-miterlimit="10"/>
<path d="M120.105 540.062C122.081 541.675 125.063 541.923 127.277 540.659C129.494 539.395 130.8 536.702 130.422 534.18C130.044 531.655 128.006 529.464 125.517 528.906" stroke="#353637" stroke-width="0.4604" stroke-miterlimit="10"/>
<path d="M104.521 547.794C103.173 546.518 102.174 544.872 101.664 543.086" stroke="#353637" stroke-width="0.4604" stroke-miterlimit="10"/>
<path d="M174.71 552.462C173.961 549.394 171.39 546.846 168.316 546.129" stroke="#353637" stroke-width="0.4604" stroke-miterlimit="10"/>
<path d="M97.5935 552.702C102.598 545.558 104.861 536.333 102.833 527.847C100.805 519.361 94.2048 511.906 85.7719 509.693C88.1637 506.415 88.7861 500.193 87.7205 496.276C86.6566 492.359 83.7419 488.99 80.0203 487.377C85.003 476.361 80.7621 460.649 70.8691 453.708C60.9762 446.767 47.0395 446.848 36.5242 452.805C36.5242 451.412 36.2564 448.547 34.9031 446.649C32.3484 443.062 28.5888 442.091 24.1797 442.68V552.704H97.5935V552.702Z" fill="#DCD9CD" stroke="#DCD9CD" stroke-width="0.5755" stroke-miterlimit="10"/>
<path d="M80.4448 486.256C82.3807 479.503 80.5479 470.746 76.2636 465.282C71.9793 459.819 65.2507 456.543 58.4715 456.385C55.3596 456.313 52.2078 456.858 49.3872 458.225C44.4787 460.605 40.1311 465.116 39.4291 471.695C38.7271 478.287 41.7576 483.879 46.2409 487.035C50.7261 490.192 57.0964 490.26 61.511 486.999C65.9256 483.737 67.9447 477.278 66.0034 472.023" stroke="#353637" stroke-width="0.4604" stroke-miterlimit="10"/>
<path d="M69.1977 552.522C72.5285 545.695 73.3155 537.47 70.4642 530.427C67.6128 523.385 60.8751 517.838 53.3071 517.253C54.0905 513.749 53.9403 509.413 51.9031 506.458C49.6994 503.265 46.0863 501.509 42.5004 501.635C42.5004 497.356 40.9734 492.856 36.9732 490.131C33.4777 487.749 27.8564 487.559 24.1836 488.995" stroke="#353637" stroke-width="0.4604" stroke-miterlimit="10"/>
<path d="M27.2812 545.108C28.8662 546.813 31.7736 547.413 34.046 546.739C36.3184 546.066 38.1295 544.226 38.9111 542.063C39.6927 539.901 39.8031 537.465 38.8803 535.356C38.077 533.518 35.7558 531.703 33.4092 531.703" stroke="#353637" stroke-width="0.4604" stroke-miterlimit="10"/>
<path d="M46.1403 476.361C44.986 472.471 46.7337 467.96 50.1079 465.709C53.4804 463.458 58.188 463.529 61.5985 465.72" stroke="#353637" stroke-width="0.4604" stroke-miterlimit="10"/>
<path d="M85.4644 515.808C85.6092 513.97 85.4445 512.08 84.7516 510.372C84.0587 508.662 82.8012 507.145 81.1367 506.354" stroke="#353637" stroke-width="0.4604" stroke-miterlimit="10"/>
<path d="M77.9235 490.612C79.4035 488.806 79.2678 485.883 77.625 484.225" stroke="#353637" stroke-width="0.4604" stroke-miterlimit="10"/>
<path d="M48.9219 453.75C57.0997 450.26 67.1917 451.235 76.6631 459.594" stroke="#353637" stroke-width="0.4604" stroke-miterlimit="10"/>
<path d="M29.4907 454.478C29.4274 453.223 28.8647 452.002 27.9528 451.138C27.041 450.276 25.7908 449.782 24.5352 449.789" stroke="#353637" stroke-width="0.4604" stroke-miterlimit="10"/>
<path d="M45.3081 546.02C47.6022 541.379 47.5895 535.662 45.2737 531.031C42.9579 526.401 38.3949 522.964 33.3073 522.02C33.8953 519.019 33.8935 515.57 32.3774 512.915C30.863 510.26 27.5756 508.317 24.5234 508.407" stroke="#353637" stroke-width="0.4604" stroke-miterlimit="10"/>
<path d="M78.8026 552.381C81.3663 547.104 82.7649 541.168 82.1624 535.331C81.5599 529.494 78.837 523.785 74.2578 520.121" stroke="#353637" stroke-width="0.4604" stroke-miterlimit="10"/>
<path d="M37.7266 452.154C33.7028 454.483 30.0445 459.291 29.1797 463.732" stroke="#353637" stroke-width="0.4604" stroke-miterlimit="10"/>
<path d="M54.9275 523.772C54.9275 520.868 53.8781 518.073 51.6998 516.371C50.5581 515.48 49.0944 514.928 47.3594 514.604" stroke="#353637" stroke-width="0.4604" stroke-miterlimit="10"/>
<path d="M24.1797 494.392C27.4834 492.758 31.6175 492.943 34.7638 494.862" stroke="#353637" stroke-width="0.4604" stroke-miterlimit="10"/>
<path d="M83.8789 552.384C85.6465 549.909 86.7357 546.953 86.9999 543.922" stroke="#353637" stroke-width="0.4604" stroke-miterlimit="10"/>
<path d="M91.375 552.701C94.3584 549.253 96.9457 544.33 97.6205 539.82C98.1163 536.512 98.2284 533.116 97.5825 529.833C96.9366 526.55 95.4983 523.377 93.1806 520.967" stroke="#353637" stroke-width="0.4604" stroke-miterlimit="10"/>
<path d="M97.5935 552.702C102.598 545.558 104.861 536.333 102.833 527.847C100.805 519.361 94.2048 511.906 85.7719 509.693C88.1637 506.415 88.7861 500.193 87.7205 496.276C86.6566 492.359 83.7419 488.99 80.0203 487.377C85.003 476.361 80.7621 460.649 70.8691 453.708C60.9762 446.767 47.0395 446.848 36.5242 452.805C36.5242 451.412 36.2564 448.547 34.9031 446.649C32.3484 443.062 28.5888 442.091 24.1797 442.68V552.704H97.5935V552.702Z" stroke="#726DC3" stroke-width="0.5755" stroke-miterlimit="10"/>
</g>
<mask id="mask3_1142_3330" style="mask-type:luminance" maskUnits="userSpaceOnUse" x="24" y="24" width="311" height="529">
<path d="M24.1562 549.95V45.0716C24.1562 33.5831 33.4612 24.2695 44.9391 24.2695H313.878C325.356 24.2695 334.663 33.5831 334.663 45.0716V549.95C334.663 551.578 333.344 552.898 331.718 552.898H27.0999C25.4734 552.898 24.1562 551.578 24.1562 549.95Z" fill="white"/>
</mask>
<g mask="url(#mask3_1142_3330)">
<path d="M151.871 23.2012C147.963 33.3532 137.23 40.2094 126.878 41.3865C116.525 42.5636 106.314 38.1576 98.7423 30.9954C95.8095 34.7893 90.4017 36.41 85.9491 34.6335C82.2275 44.0268 74.6829 51.8373 65.4286 55.8775C56.1743 59.9176 44.0397 59.9176 34.2082 55.8847C33.3326 53.641 35.4385 51.5584 36.0338 49.2259C37.1139 44.9974 35.6249 43.029 35.4222 38.6683C35.2196 34.3094 26.8989 26.8502 23.957 23.6285L151.871 23.2012Z" fill="#726DC3" stroke="#DCD9CD" stroke-width="0.5755" stroke-miterlimit="10"/>
<path d="M50.6406 54.1249C59.2997 54.2897 68.3893 50.6425 73.2544 43.9512" stroke="#353637" stroke-width="0.4604" stroke-miterlimit="10"/>
<path d="M77.9221 36.2578C77.5946 37.8261 76.8203 39.3002 75.7148 40.4592" stroke="#353637" stroke-width="0.4604" stroke-miterlimit="10"/>
<path d="M108.504 23.5605C111.218 27.3001 115.01 30.3316 119.415 31.7133C123.821 33.0951 128.84 32.7184 132.773 30.3008" stroke="#353637" stroke-width="0.4604" stroke-miterlimit="10"/>
<path d="M146.21 23.6289C143.292 30.3456 136.585 35.2568 129.305 36.0048" stroke="#353637" stroke-width="0.4604" stroke-miterlimit="10"/>
<path d="M38.4258 45.8945C39.685 47.0173 41.2989 47.6819 42.9471 48.0441C44.5953 48.4063 46.2888 48.4878 47.9732 48.5656" stroke="#353637" stroke-width="0.4604" stroke-miterlimit="10"/>
<path d="M36.293 52.1543C37.8164 53.2481 39.6564 53.8964 41.5289 54.0014" stroke="#353637" stroke-width="0.4604" stroke-miterlimit="10"/>
<path d="M54.1895 34.5992C55.5519 33.2138 55.6061 30.8289 54.5007 29.2298C53.3952 27.6308 51.3363 26.8358 49.4022 27.0078C46.7028 27.2487 44.2911 29.3023 43.4987 31.8955C42.7062 34.4887 43.5095 37.4713 45.4056 39.409C46.4785 40.5064 47.8517 41.2761 49.2864 41.8212C51.87 42.8027 54.7449 43.0834 57.4317 42.4314C60.1184 41.7795 62.5916 40.1605 64.1132 37.8498C66.7348 38.6774 69.7599 37.8389 71.9147 36.1294C74.0695 34.4199 75.488 31.9245 76.3673 29.3185C78.4479 30.0194 80.7963 29.6717 82.7919 28.7535C84.7875 27.8354 86.4104 26.1349 87.2336 24.0977" stroke="#353637" stroke-width="0.4604" stroke-miterlimit="10"/>
<path d="M47.846 31.9707C46.8509 32.8309 46.5813 34.4209 47.2363 35.5618C47.8912 36.7026 49.3983 37.2695 50.6431 36.8421" stroke="#353637" stroke-width="0.4604" stroke-miterlimit="10"/>
<path d="M54.418 23.7754C56.2815 24.6157 57.8103 26.1712 58.6245 28.0474C59.4368 29.9235 59.5237 32.1056 58.8633 34.0397" stroke="#353637" stroke-width="0.4604" stroke-miterlimit="10"/>
<path d="M60.4609 23.9785C62.5669 25.4363 63.8569 28.0024 63.7719 30.5648" stroke="#353637" stroke-width="0.4604" stroke-miterlimit="10"/>
<path d="M23.6058 26.7461C30.8283 26.7877 37.6347 31.1303 41.6404 37.1444C45.6461 43.1585 47.0717 50.634 46.6864 57.8523C52.286 58.6039 57.3284 63.0859 59.0309 68.477C60.7352 73.8681 59.8468 79.8297 57.5979 85.0162C64.1004 91.2494 66.7654 100.532 66.7039 109.545C66.6406 118.717 63.8706 128.04 57.967 135.056C52.0635 142.071 42.8453 146.49 33.7267 145.588C33.9457 149.208 33.0935 152.641 31.4652 155.881C29.8368 159.121 26.8208 162.205 23.5117 163.683L23.6058 26.7461Z" fill="#DCD9CD" stroke="#726DC3" stroke-width="0.5755" stroke-miterlimit="10"/>
<path d="M57.4048 85.1923C57.6092 85.0891 57.4735 84.7776 57.3143 84.611C53.2019 80.3028 46.9799 78.1152 41.0781 78.9084" stroke="#353637" stroke-width="0.4604" stroke-miterlimit="10"/>
<path d="M40.6275 94.2598C36.9095 95.5473 34.0238 98.9863 33.3996 102.874C32.7754 106.762 34.4363 110.933 37.5645 113.323C39.4949 114.799 42.017 115.609 44.398 115.131C46.779 114.653 48.9103 112.737 49.283 110.335C49.6557 107.934 47.9532 105.29 45.5469 104.957" stroke="#353637" stroke-width="0.4604" stroke-miterlimit="10"/>
<path d="M57.0703 92.1523C61.3546 99.023 62.4745 107.786 60.0574 115.515" stroke="#353637" stroke-width="0.4604" stroke-miterlimit="10"/>
<path d="M56.7927 125.014C53.1995 133.185 44.336 138.724 35.4219 138.371" stroke="#353637" stroke-width="0.4604" stroke-miterlimit="10"/>
<path d="M43.1523 56.1895C45.4356 57.1402 47.0965 59.4383 47.281 61.9065" stroke="#353637" stroke-width="0.4604" stroke-miterlimit="10"/>
<path d="M23.6055 30.8613C27.6636 31.133 31.6222 32.7519 34.7088 35.4049C37.7954 38.0579 39.9954 41.7269 40.8784 45.7" stroke="#353637" stroke-width="0.4604" stroke-miterlimit="10"/>
<path d="M53.5551 72.1094C53.6601 72.1981 53.6908 72.3448 53.7125 72.4806C54.1648 75.2857 53.6999 78.2339 52.4062 80.7638" stroke="#353637" stroke-width="0.4604" stroke-miterlimit="10"/>
<path d="M23.5195 56.3242C25.7341 57.1826 27.5017 58.9863 28.6415 61.0706C29.7813 63.1568 30.3368 65.5165 30.6226 67.8779C31.0478 71.4002 30.8814 74.486 29.8302 77.8742C28.779 81.2624 26.5084 84.5909 23.7077 85.826" stroke="#353637" stroke-width="0.4604" stroke-miterlimit="10"/>
<path d="M26.6836 115.15C27.9302 118.868 30.5988 122.086 34.0165 124C37.4341 125.915 41.5719 126.505 45.3894 125.623" stroke="#353637" stroke-width="0.4604" stroke-miterlimit="10"/>
<path d="M38.5782 109.577C36.6622 107.225 36.3673 103.677 37.8672 101.039C39.3671 98.402 42.5676 96.8465 45.5655 97.2956C48.5635 97.7447 51.167 100.171 51.831 103.132" stroke="#353637" stroke-width="0.4604" stroke-miterlimit="10"/>
<path d="M29.3906 128.125C30.9086 129.729 32.8626 130.917 34.9848 131.526" stroke="#353637" stroke-width="0.4604" stroke-miterlimit="10"/>
<path d="M23.8477 44.5781C27.4933 45.4691 30.5202 48.5296 31.3705 52.1876" stroke="#353637" stroke-width="0.4604" stroke-miterlimit="10"/>
</g>
<mask id="mask4_1142_3330" style="mask-type:luminance" maskUnits="userSpaceOnUse" x="24" y="24" width="311" height="529">
<path d="M24.1562 549.95V45.0716C24.1562 33.5831 33.4612 24.2695 44.9391 24.2695H313.878C325.356 24.2695 334.663 33.5831 334.663 45.0716V549.95C334.663 551.578 333.344 552.898 331.718 552.898H27.0999C25.4734 552.898 24.1562 551.578 24.1562 549.95Z" fill="white"/>
</mask>
<g mask="url(#mask4_1142_3330)">
<path d="M335.582 428.414C325.691 432.228 319.011 442.706 317.864 452.811C316.717 462.916 321.01 472.885 327.989 480.275C324.292 483.138 322.715 488.417 324.444 492.763C315.291 496.396 307.682 503.761 303.747 512.794C299.81 521.827 299.81 533.674 303.739 543.27C305.925 544.125 307.955 542.069 310.227 541.488C314.347 540.434 317.358 543.21 320.71 545.827C325.011 549.185 331.605 555.561 335.168 556.457L335.582 428.414Z" fill="#726DC3" stroke="#DCD9CD" stroke-width="0.5755" stroke-miterlimit="10"/>
<path d="M305.451 527.226C305.29 518.774 308.843 509.901 315.363 505.152" stroke="#353637" stroke-width="0.4604" stroke-miterlimit="10"/>
<path d="M322.86 500.598C321.331 500.916 319.896 501.672 318.766 502.751" stroke="#353637" stroke-width="0.4604" stroke-miterlimit="10"/>
<path d="M335.232 470.747C331.588 468.1 328.635 464.396 327.289 460.097C325.943 455.796 326.31 450.898 328.664 447.057" stroke="#353637" stroke-width="0.4604" stroke-miterlimit="10"/>
<path d="M335.164 433.936C328.618 436.784 323.835 443.331 323.105 450.437" stroke="#353637" stroke-width="0.4604" stroke-miterlimit="10"/>
<path d="M314.919 536.735C313.647 535.69 312.764 534.234 312.165 532.7C311.566 531.166 311.233 529.545 310.902 527.932" stroke="#353637" stroke-width="0.4604" stroke-miterlimit="10"/>
<path d="M307.371 541.234C306.305 539.745 305.673 537.95 305.57 536.123" stroke="#353637" stroke-width="0.4604" stroke-miterlimit="10"/>
<path d="M324.478 523.762C325.828 522.431 328.153 522.379 329.71 523.458C331.268 524.537 332.044 526.546 331.876 528.434C331.641 531.069 329.64 533.424 327.114 534.197C324.587 534.97 321.681 534.186 319.792 532.335C318.723 531.287 317.972 529.948 317.442 528.549C316.485 526.026 316.212 523.221 316.849 520.599C317.485 517.976 319.061 515.562 321.312 514.078C320.505 511.519 321.323 508.565 322.987 506.463C324.652 504.36 327.083 502.975 329.624 502.116C328.942 500.084 329.28 497.794 330.174 495.845C331.067 493.898 332.725 492.314 334.709 491.51" stroke="#353637" stroke-width="0.4604" stroke-miterlimit="10"/>
<path d="M327.038 529.955C326.2 530.926 324.652 531.191 323.539 530.549C322.428 529.91 321.875 528.438 322.291 527.225" stroke="#353637" stroke-width="0.4604" stroke-miterlimit="10"/>
<path d="M335.021 523.541C334.201 521.723 332.687 520.229 330.858 519.436C329.029 518.643 326.905 518.558 325.02 519.202" stroke="#353637" stroke-width="0.4604" stroke-miterlimit="10"/>
<path d="M334.826 517.642C333.405 515.587 330.905 514.328 328.41 514.41" stroke="#353637" stroke-width="0.4604" stroke-miterlimit="10"/>
<path d="M332.124 553.622C332.084 546.572 327.853 539.927 321.993 536.018C316.132 532.106 308.848 530.715 301.816 531.092C301.083 525.626 296.717 520.704 291.465 519.042C286.213 517.379 280.403 518.245 275.35 520.442C269.278 514.094 260.232 511.494 251.452 511.554C242.516 511.615 233.432 514.319 226.596 520.083C219.761 525.846 215.457 534.844 216.334 543.747C212.808 543.533 209.463 544.366 206.306 545.954C203.148 547.542 200.143 550.489 198.703 553.717L332.124 553.622Z" fill="#DCD9CD" stroke="#726DC3" stroke-width="0.5755" stroke-miterlimit="10"/>
<path d="M275.18 520.629C275.281 520.428 275.585 520.562 275.746 520.718C279.943 524.731 282.075 530.806 281.302 536.565" stroke="#353637" stroke-width="0.4604" stroke-miterlimit="10"/>
<path d="M266.343 537.002C265.089 540.631 261.738 543.447 257.95 544.057C254.161 544.668 250.098 543.045 247.769 539.992C246.331 538.108 245.544 535.646 246.009 533.322C246.474 530.997 248.341 528.918 250.682 528.554C253.023 528.19 255.598 529.852 255.922 532.201" stroke="#353637" stroke-width="0.4604" stroke-miterlimit="10"/>
<path d="M268.397 520.954C261.703 516.773 253.165 515.679 245.633 518.039" stroke="#353637" stroke-width="0.4604" stroke-miterlimit="10"/>
<path d="M236.381 521.225C228.419 524.732 223.022 533.385 223.367 542.085" stroke="#353637" stroke-width="0.4604" stroke-miterlimit="10"/>
<path d="M303.438 534.539C302.512 532.31 300.272 530.689 297.867 530.508" stroke="#353637" stroke-width="0.4604" stroke-miterlimit="10"/>
<path d="M328.114 553.621C327.85 549.659 326.27 545.796 323.687 542.783C321.103 539.769 317.528 537.624 313.656 536.76" stroke="#353637" stroke-width="0.4604" stroke-miterlimit="10"/>
<path d="M287.925 524.383C287.84 524.28 287.695 524.251 287.563 524.229C284.829 523.788 281.958 524.24 279.492 525.504" stroke="#353637" stroke-width="0.4604" stroke-miterlimit="10"/>
<path d="M303.304 553.702C302.466 551.54 300.711 549.814 298.678 548.702C296.646 547.59 294.346 547.047 292.047 546.768C288.615 546.354 285.608 546.517 282.306 547.542C279.004 548.567 275.762 550.785 274.559 553.518" stroke="#353637" stroke-width="0.4604" stroke-miterlimit="10"/>
<path d="M245.989 550.617C242.367 549.4 239.229 546.796 237.366 543.458C235.501 540.121 234.925 536.082 235.785 532.357" stroke="#353637" stroke-width="0.4604" stroke-miterlimit="10"/>
<path d="M251.422 539.002C253.714 540.872 257.17 541.16 259.741 539.695C262.31 538.23 263.826 535.106 263.388 532.18C262.95 529.253 260.586 526.711 257.7 526.064" stroke="#353637" stroke-width="0.4604" stroke-miterlimit="10"/>
<path d="M233.348 547.97C231.783 546.488 230.627 544.581 230.035 542.508" stroke="#353637" stroke-width="0.4604" stroke-miterlimit="10"/>
<path d="M314.75 553.384C313.882 549.826 310.9 546.872 307.336 546.041" stroke="#353637" stroke-width="0.4604" stroke-miterlimit="10"/>
</g>
<mask id="mask5_1142_3330" style="mask-type:luminance" maskUnits="userSpaceOnUse" x="24" y="24" width="311" height="529">
<path d="M24.1562 549.95V45.0716C24.1562 33.5831 33.4612 24.2695 44.9391 24.2695H313.878C325.356 24.2695 334.663 33.5831 334.663 45.0716V549.95C334.663 551.578 333.344 552.898 331.718 552.898H27.0999C25.4734 552.898 24.1562 551.578 24.1562 549.95Z" fill="white"/>
</mask>
<g mask="url(#mask5_1142_3330)">
<path d="M179.621 422.614C249.262 422.614 305.718 366.106 305.718 296.4C305.718 226.694 249.262 170.186 179.621 170.186C109.979 170.186 53.5234 226.694 53.5234 296.4C53.5234 366.106 109.979 422.614 179.621 422.614Z" fill="#DCD9CD" stroke="#726DC3" stroke-width="0.8632" stroke-miterlimit="10"/>
<path d="M179.621 397.27C235.278 397.27 280.398 352.109 280.398 296.4C280.398 240.69 235.278 195.529 179.621 195.529C123.963 195.529 78.8438 240.69 78.8438 296.4C78.8438 352.109 123.963 397.27 179.621 397.27Z" stroke="#353637" stroke-width="0.2877" stroke-miterlimit="10"/>
<path d="M179.622 217.818C136.263 217.818 101.113 253.001 101.113 296.4C101.113 339.799 136.263 374.981 179.622 374.981C222.981 374.981 258.131 339.799 258.131 296.4C258.131 253.001 222.981 217.818 179.622 217.818ZM179.622 347.062C151.667 347.062 129.006 324.38 129.006 296.4C129.006 268.419 151.667 245.737 179.622 245.737C207.577 245.737 230.237 268.419 230.237 296.4C230.237 324.38 207.575 347.062 179.622 347.062Z" fill="#353637"/>
<path d="M171.965 296.4C171.965 300.632 175.393 304.064 179.622 304.064C183.85 304.064 187.278 300.632 187.278 296.4C187.278 292.168 183.85 288.736 179.622 288.736C175.393 288.736 171.965 292.168 171.965 296.4Z" fill="#353637"/>
<path d="M179.621 315.186C189.987 315.186 198.39 306.775 198.39 296.4C198.39 286.024 189.987 277.613 179.621 277.613C169.255 277.613 160.852 286.024 160.852 296.4C160.852 306.775 169.255 315.186 179.621 315.186Z" stroke="#353637" stroke-width="0.8632" stroke-miterlimit="10"/>
<path d="M181.855 411.33C189.619 410.1 194.918 402.803 193.689 395.032C192.46 387.261 185.17 381.958 177.406 383.187C169.642 384.417 164.344 391.714 165.572 399.485C166.801 407.257 174.091 412.56 181.855 411.33Z" fill="#726DC3" stroke="#353637" stroke-width="0.5755" stroke-miterlimit="10"/>
<path d="M179.62 209.774C187.481 209.774 193.853 203.396 193.853 195.528C193.853 187.66 187.481 181.281 179.62 181.281C171.759 181.281 165.387 187.66 165.387 195.528C165.387 203.396 171.759 209.774 179.62 209.774Z" fill="#353637" stroke="#353637" stroke-width="0.5755" stroke-miterlimit="10"/>
<path d="M101.172 225.073C101.172 218.177 106.757 212.588 113.645 212.588C114.262 212.588 114.865 212.648 115.458 212.735C113.368 211.527 110.949 210.826 108.362 210.826C100.501 210.826 94.1289 217.204 94.1289 225.073C94.1289 232.941 100.501 239.319 108.362 239.319C110.949 239.319 113.368 238.618 115.458 237.411C114.865 237.497 114.262 237.557 113.645 237.557C106.756 237.557 101.172 231.969 101.172 225.073Z" fill="#726DC3"/>
<path d="M122.595 225.072C122.595 219.794 119.72 215.196 115.458 212.735C114.864 212.648 114.262 212.588 113.645 212.588C106.757 212.588 101.172 218.178 101.172 225.072C101.172 231.967 106.757 237.557 113.645 237.557C114.262 237.557 114.864 237.497 115.458 237.41C119.72 234.949 122.595 230.351 122.595 225.072Z" fill="#353637"/>
<path d="M115.458 212.735C113.368 211.527 110.949 210.826 108.362 210.826C100.501 210.826 94.1289 217.204 94.1289 225.073C94.1289 232.941 100.501 239.319 108.362 239.319C110.949 239.319 113.368 238.618 115.458 237.411C119.721 234.949 122.596 230.352 122.596 225.073C122.596 219.794 119.721 215.196 115.458 212.735Z" stroke="#353637" stroke-width="0.5755" stroke-miterlimit="10"/>
<path d="M258.071 225.073C258.071 231.969 252.488 237.557 245.598 237.557C244.981 237.557 244.379 237.497 243.785 237.411C245.875 238.618 248.294 239.319 250.881 239.319C258.742 239.319 265.114 232.941 265.114 225.073C265.114 217.204 258.742 210.826 250.881 210.826C248.294 210.826 245.875 211.527 243.785 212.735C244.379 212.648 244.981 212.588 245.598 212.588C252.488 212.588 258.071 218.179 258.071 225.073Z" fill="#726DC3"/>
<path d="M236.648 225.072C236.648 230.351 239.523 234.949 243.786 237.41C244.379 237.497 244.982 237.557 245.599 237.557C252.488 237.557 258.072 231.967 258.072 225.072C258.072 218.178 252.488 212.588 245.599 212.588C244.982 212.588 244.379 212.648 243.786 212.735C239.525 215.196 236.648 219.794 236.648 225.072Z" fill="#353637"/>
<path d="M243.786 237.411C245.876 238.618 248.295 239.319 250.882 239.319C258.743 239.319 265.115 232.941 265.115 225.073C265.115 217.204 258.743 210.826 250.882 210.826C248.295 210.826 245.876 211.527 243.786 212.735C239.523 215.196 236.648 219.794 236.648 225.073C236.648 230.352 239.525 234.949 243.786 237.411Z" stroke="#353637" stroke-width="0.5755" stroke-miterlimit="10"/>
<path d="M115.551 367.725C115.551 374.619 109.966 380.21 103.078 380.21C102.462 380.21 101.859 380.15 101.266 380.063C103.355 381.271 105.774 381.972 108.361 381.972C116.223 381.972 122.595 375.594 122.595 367.725C122.595 359.857 116.223 353.479 108.361 353.479C105.774 353.479 103.355 354.179 101.266 355.387C101.859 355.3 102.462 355.241 103.078 355.241C109.968 355.241 115.551 360.831 115.551 367.725Z" fill="#353637"/>
<path d="M94.1289 367.725C94.1289 373.004 97.0038 377.602 101.266 380.063C101.86 380.149 102.462 380.209 103.079 380.209C109.969 380.209 115.552 374.619 115.552 367.725C115.552 360.831 109.967 355.24 103.079 355.24C102.462 355.24 101.86 355.3 101.266 355.387C97.0038 357.848 94.1289 362.446 94.1289 367.725Z" fill="#726DC3"/>
<path d="M115.458 355.387C113.368 354.179 110.949 353.479 108.362 353.479C100.501 353.479 94.1289 359.857 94.1289 367.725C94.1289 375.594 100.501 381.972 108.362 381.972C110.949 381.972 113.368 381.271 115.458 380.063C119.721 377.602 122.596 373.004 122.596 367.725C122.596 362.446 119.721 357.848 115.458 355.387Z" stroke="#353637" stroke-width="0.5755" stroke-miterlimit="10"/>
<path d="M243.692 367.725C243.692 360.831 249.277 355.241 256.165 355.241C256.782 355.241 257.384 355.3 257.978 355.387C255.888 354.179 253.469 353.479 250.882 353.479C243.021 353.479 236.648 359.857 236.648 367.725C236.648 375.594 243.021 381.972 250.882 381.972C253.469 381.972 255.888 381.271 257.978 380.063C257.384 380.15 256.782 380.21 256.165 380.21C249.277 380.211 243.692 374.621 243.692 367.725Z" fill="#353637"/>
<path d="M265.115 367.725C265.115 362.446 262.24 357.848 257.977 355.387C257.384 355.3 256.781 355.24 256.164 355.24C249.275 355.24 243.691 360.831 243.691 367.725C243.691 374.619 249.277 380.209 256.164 380.209C256.781 380.209 257.384 380.149 257.977 380.063C262.24 377.602 265.115 373.005 265.115 367.725Z" fill="#726DC3"/>
<path d="M243.786 380.063C245.876 381.271 248.295 381.972 250.882 381.972C258.743 381.972 265.115 375.594 265.115 367.725C265.115 359.857 258.743 353.479 250.882 353.479C248.295 353.479 245.876 354.179 243.786 355.387C239.523 357.848 236.648 362.446 236.648 367.725C236.648 373.004 239.525 377.602 243.786 380.063Z" stroke="#353637" stroke-width="0.5755" stroke-miterlimit="10"/>
<path d="M64.6094 296.399C64.6094 304.267 70.9815 310.645 78.8427 310.645V282.152C70.9833 282.152 64.6094 288.53 64.6094 296.399Z" fill="#726DC3"/>
<path d="M78.8438 282.152V310.645C86.7049 310.645 93.0771 304.267 93.0771 296.399C93.0771 288.53 86.7049 282.152 78.8438 282.152Z" fill="#353637"/>
<path d="M85.9386 284.061C83.8489 282.853 81.4299 282.152 78.8427 282.152C70.9815 282.152 64.6094 288.53 64.6094 296.399C64.6094 304.267 70.9815 310.645 78.8427 310.645C81.4299 310.645 83.8489 309.945 85.9386 308.737C90.2012 306.276 93.0761 301.678 93.0761 296.399C93.0761 291.12 90.2012 286.522 85.9386 284.061Z" stroke="#353637" stroke-width="0.5755" stroke-miterlimit="10"/>
<path d="M294.632 296.399C294.632 288.53 288.26 282.152 280.398 282.152V310.645C288.26 310.645 294.632 304.267 294.632 296.399Z" fill="#726DC3"/>
<path d="M280.397 310.645V282.152C272.536 282.152 266.164 288.53 266.164 296.399C266.164 304.267 272.536 310.645 280.397 310.645Z" fill="#353637"/>
<path d="M287.493 284.061C285.404 282.853 282.985 282.152 280.397 282.152C272.536 282.152 266.164 288.53 266.164 296.399C266.164 304.267 272.536 310.645 280.397 310.645C282.985 310.645 285.404 309.945 287.493 308.737C291.756 306.276 294.631 301.678 294.631 296.399C294.631 291.12 291.756 286.522 287.493 284.061Z" stroke="#353637" stroke-width="0.5755" stroke-miterlimit="10"/>
<path d="M123.36 301.809H108.16L115.759 288.936L123.36 301.809Z" stroke="#726DC3" stroke-width="0.5755" stroke-miterlimit="10"/>
<path d="M236.078 289.961H251.278L243.677 302.835L236.078 289.961Z" stroke="#726DC3" stroke-width="0.5755" stroke-miterlimit="10"/>
<path d="M187.219 238.179H172.02L179.62 225.305L187.219 238.179Z" stroke="#726DC3" stroke-width="0.5755" stroke-miterlimit="10"/>
<path d="M170.504 230.666H188.736" stroke="#726DC3" stroke-width="0.5755" stroke-miterlimit="10"/>
<path d="M172.078 354.619H187.276L179.677 367.493L172.078 354.619Z" stroke="#726DC3" stroke-width="0.5755" stroke-miterlimit="10"/>
<path d="M170.504 361.055H188.736" stroke="#726DC3" stroke-width="0.5755" stroke-miterlimit="10"/>
<path d="M179.621 245.736V347.061" stroke="#353637" stroke-width="0.2877" stroke-miterlimit="10"/>
<path d="M230.235 296.398H129.004" stroke="#353637" stroke-width="0.2877" stroke-miterlimit="10"/>
<path d="M148.605 265.357L210.63 327.439" stroke="#353637" stroke-width="0.2877" stroke-miterlimit="10"/>
<path d="M210.63 265.357L148.605 327.439" stroke="#353637" stroke-width="0.2877" stroke-miterlimit="10"/>
<path d="M145.086 268.871L152.118 261.832" stroke="#353637" stroke-width="0.2877" stroke-miterlimit="10"/>
<path d="M206.887 330.732L213.919 323.693" stroke="#353637" stroke-width="0.2877" stroke-miterlimit="10"/>
<path d="M206.887 261.832L213.919 268.871" stroke="#353637" stroke-width="0.2877" stroke-miterlimit="10"/>
<path d="M145.086 323.693L152.118 330.732" stroke="#353637" stroke-width="0.2877" stroke-miterlimit="10"/>
<path d="M146.228 296.4C146.228 293.651 144.001 291.422 141.255 291.422C138.508 291.422 136.281 293.651 136.281 296.4C136.281 299.149 138.508 301.378 141.255 301.378C144.003 301.377 146.228 299.149 146.228 296.4Z" stroke="#353637" stroke-width="0.5755" stroke-miterlimit="10"/>
<path d="M184.65 261.539C184.65 258.79 182.423 256.561 179.677 256.561C176.93 256.561 174.703 258.79 174.703 261.539C174.703 264.288 176.93 266.517 179.677 266.517C182.423 266.517 184.65 264.288 184.65 261.539Z" stroke="#353637" stroke-width="0.5755" stroke-miterlimit="10"/>
<path d="M174.703 250.908C174.703 253.657 176.93 255.886 179.677 255.886C182.423 255.886 184.65 253.657 184.65 250.908" stroke="#353637" stroke-width="0.5755" stroke-miterlimit="10"/>
<path d="M174.703 269.348H184.65" stroke="#353637" stroke-width="0.5755" stroke-miterlimit="10"/>
<path d="M215.969 301.377V291.422L224.387 296.4L215.969 301.377Z" stroke="#353637" stroke-width="0.5755" stroke-miterlimit="10"/>
<path d="M213.094 290.691V302.106" stroke="#353637" stroke-width="0.5755" stroke-miterlimit="10"/>
<path d="M190.154 333.182C188.661 333.182 188.661 334.5 187.169 334.5C185.674 334.5 185.674 333.182 184.18 333.182C182.684 333.182 182.684 334.5 181.187 334.5C179.693 334.5 179.693 333.182 178.198 333.182C176.7 333.182 176.7 334.5 175.202 334.5C173.702 334.5 173.702 333.182 172.201 333.182C170.699 333.182 170.701 334.5 169.199 334.5" stroke="#353637" stroke-width="0.5755" stroke-miterlimit="10"/>
<path d="M190.154 337.371C188.661 337.371 188.661 338.689 187.169 338.689C185.674 338.689 185.674 337.371 184.18 337.371C182.684 337.371 182.684 338.689 181.187 338.689C179.693 338.689 179.693 337.371 178.198 337.371C176.7 337.371 176.7 338.689 175.202 338.689C173.702 338.689 173.702 337.371 172.201 337.371C170.699 337.371 170.701 338.689 169.199 338.689" stroke="#353637" stroke-width="0.5755" stroke-miterlimit="10"/>
<path d="M138.551 346.031L143.463 348.869C142.048 351.323 142.888 354.459 145.339 355.875C147.791 357.292 150.924 356.451 152.339 353.998L157.251 356.835" stroke="#726DC3" stroke-width="0.5755" stroke-miterlimit="10"/>
<path d="M158.829 354.103L140.129 343.295" stroke="#726DC3" stroke-width="0.5755" stroke-miterlimit="10"/>
<path d="M121.824 320.59L131.1 324.415L129.772 334.367" stroke="#726DC3" stroke-width="0.5755" stroke-miterlimit="10"/>
<path d="M131.098 324.414L116.469 332.869" stroke="#726DC3" stroke-width="0.5755" stroke-miterlimit="10"/>
<path d="M123.367 334.142L118.816 326.252" stroke="#726DC3" stroke-width="0.5755" stroke-miterlimit="10"/>
<path d="M222.532 242.743C223.661 240.785 222.992 238.28 221.036 237.15C219.726 236.393 218.17 236.444 216.947 237.149C216.947 237.149 213.316 238.862 207.763 247.723C212.654 238.478 212.321 234.474 212.321 234.474C212.319 233.061 211.584 231.689 210.274 230.93C208.319 229.8 205.816 230.47 204.688 232.428" stroke="#726DC3" stroke-width="0.5755" stroke-miterlimit="10"/>
<path d="M238.446 250.891C237.446 254.33 237.786 258.152 239.716 261.501C241.647 264.847 244.786 267.053 248.261 267.906" stroke="#726DC3" stroke-width="0.5755" stroke-miterlimit="10"/>
<path d="M232.278 277.142C233.279 273.703 232.94 269.881 231.01 266.532C229.079 263.186 225.94 260.98 222.465 260.127" stroke="#726DC3" stroke-width="0.5755" stroke-miterlimit="10"/>
<path d="M237.965 256.959L228 262.718" stroke="#726DC3" stroke-width="0.5755" stroke-miterlimit="10"/>
<path d="M242.772 265.287L232.805 271.048" stroke="#726DC3" stroke-width="0.5755" stroke-miterlimit="10"/>
<path d="M149.195 228.125C148.155 231.551 148.448 235.38 150.339 238.748C152.23 242.118 155.341 244.36 158.808 245.253" stroke="#726DC3" stroke-width="0.5755" stroke-miterlimit="10"/>
<path d="M145.616 252.671C146.657 249.242 146.364 245.416 144.473 242.046C142.582 238.676 139.47 236.434 136.004 235.541" stroke="#726DC3" stroke-width="0.5755" stroke-miterlimit="10"/>
<path d="M154.224 236.566L140.59 244.232" stroke="#726DC3" stroke-width="0.5755" stroke-miterlimit="10"/>
<path d="M231.777 326.24C233.297 327.119 235.238 326.597 236.116 325.078C236.993 323.557 236.472 321.613 234.952 320.735C233.434 319.857 231.491 320.378 230.614 321.9C229.736 323.419 230.257 325.362 231.777 326.24Z" stroke="#726DC3" stroke-width="0.5755" stroke-miterlimit="10"/>
<path d="M234.953 320.734C234.953 320.734 241.79 323.54 242.744 329.89" stroke="#726DC3" stroke-width="0.5755" stroke-miterlimit="10"/>
<path d="M238.515 330.864C236.997 329.986 235.054 330.507 234.176 332.027C233.299 333.548 233.82 335.491 235.34 336.369C236.859 337.248 238.801 336.726 239.678 335.205C240.554 333.687 240.033 331.742 238.515 330.864Z" stroke="#726DC3" stroke-width="0.5755" stroke-miterlimit="10"/>
<path d="M235.338 336.371C235.338 336.371 228.499 333.566 227.547 327.215" stroke="#726DC3" stroke-width="0.5755" stroke-miterlimit="10"/>
<path d="M127.201 271.158L117.838 265.747C116.039 264.708 115.375 262.49 116.354 260.793C117.333 259.096 119.584 258.563 121.382 259.603C123.427 260.784 125.475 262.118 127.524 263.29C129.252 264.279 131.192 265.302 133.133 264.864C134.441 264.569 135.57 263.576 136.03 262.316C136.336 261.477 136.337 260.483 135.833 259.746C135.33 259.009 134.248 258.659 133.49 259.13C133.137 259.349 132.893 259.706 132.692 260.068C131.577 262.078 131.492 264.471 131.076 266.731C130.589 269.36 129.618 271.901 128.225 274.185" stroke="#726DC3" stroke-width="0.5755" stroke-miterlimit="10"/>
<path d="M117.836 265.747C117.836 265.747 114.784 264.5 113.078 266.468" stroke="#726DC3" stroke-width="0.5755" stroke-miterlimit="10"/>
<path d="M215.627 340.785L222.117 350.224C223.363 352.036 223.166 354.338 221.677 355.365C220.186 356.392 217.97 355.752 216.722 353.94C215.305 351.879 211.748 346.493 210.324 344.438" stroke="#726DC3" stroke-width="0.5755" stroke-miterlimit="10"/>
<path d="M210.234 344.502L216.724 353.942C217.97 355.755 217.773 358.057 216.284 359.084C214.795 360.11 212.577 359.471 211.33 357.658C209.914 355.597 205.611 349.129 204.188 347.072" stroke="#726DC3" stroke-width="0.5755" stroke-miterlimit="10"/>
<path d="M222.117 350.225C222.117 350.225 224.417 352.843 226.66 351.934" stroke="#726DC3" stroke-width="0.5755" stroke-miterlimit="10"/>
<path d="M210.513 356.472C210.513 356.472 212.247 359.48 211.239 360.81C210.937 361.21 210.244 361.342 209.783 361.146C209.321 360.951 208.97 360.563 208.663 360.165C206.774 357.715 206.057 354.498 206.227 351.407C206.397 348.316 207.389 345.326 208.626 342.49" stroke="#726DC3" stroke-width="0.5755" stroke-miterlimit="10"/>
<path d="M179.469 124.633L181.147 134.98L187.164 131.33L183.515 137.353L193.855 139.03L183.515 140.708L187.164 146.732L181.147 143.079L179.469 153.428L177.794 143.079L171.777 146.732L175.424 140.708L165.086 139.03L175.424 137.353L171.777 131.33L177.794 134.98L179.469 124.633Z" fill="#726DC3" stroke="#DCD9CD" stroke-width="0.2877" stroke-miterlimit="10"/>
<path d="M179.469 439.369L181.147 449.717L187.164 446.066L183.515 452.089L193.855 453.766L183.515 455.443L187.164 461.466L181.147 457.815L179.469 468.163L177.794 457.815L171.777 461.466L175.424 455.443L165.086 453.766L175.424 452.089L171.777 446.066L177.794 449.717L179.469 439.369Z" fill="#DCD9CD" stroke="#726DC3" stroke-width="0.2877" stroke-miterlimit="10"/>
</g>
<mask id="mask6_1142_3330" style="mask-type:luminance" maskUnits="userSpaceOnUse" x="24" y="24" width="311" height="529">
<path d="M24.1562 549.95V45.0716C24.1562 33.5831 33.4612 24.2695 44.9391 24.2695H313.878C325.356 24.2695 334.663 33.5831 334.663 45.0716V549.95C334.663 551.578 333.344 552.898 331.718 552.898H27.0999C25.4734 552.898 24.1562 551.578 24.1562 549.95Z" fill="white"/>
</mask>
<g mask="url(#mask6_1142_3330)">
<path d="M135.146 119.127L135.589 122.021L137.186 121.052L136.218 122.651L139.11 123.095L136.218 123.54L137.186 125.139L135.589 124.17L135.146 127.064L134.7 124.17L133.103 125.139L134.071 123.54L131.18 123.095L134.071 122.651L133.103 121.052L134.7 122.021L135.146 119.127Z" fill="#726DC3"/>
<path d="M141.259 88.7188L141.702 91.6126L143.3 90.6438L142.332 92.241L145.223 92.6865L142.332 93.132L143.3 94.731L141.702 93.7622L141.259 96.656L140.814 93.7622L139.216 94.731L140.184 93.132L137.293 92.6865L140.184 92.241L139.216 90.6438L140.814 91.6126L141.259 88.7188Z" fill="#726DC3"/>
<path d="M97.044 108.432L97.4891 111.325L99.0848 110.357L98.1169 111.956L101.01 112.401L98.1169 112.845L99.0848 114.444L97.4891 113.475L97.044 116.369L96.5989 113.475L95.0032 114.444L95.9711 112.845L93.0781 112.401L95.9711 111.956L95.0032 110.357L96.5989 111.325L97.044 108.432Z" fill="#726DC3"/>
<path d="M93.0773 72.748L93.5224 75.6419L95.12 74.6731L94.152 76.2703L97.0432 76.7158L94.152 77.1613L95.12 78.7603L93.5224 77.7915L93.0773 80.6853L92.6341 77.7915L91.0365 78.7603L92.0045 77.1613L89.1133 76.7158L92.0045 76.2703L91.0365 74.6731L92.6341 75.6419L93.0773 72.748Z" fill="#726DC3"/>
<path d="M216.845 152.561L217.288 155.454L218.886 154.486L217.918 156.085L220.809 156.53L217.918 156.976L218.886 158.573L217.288 157.604L216.845 160.498L216.4 157.604L214.802 158.573L215.77 156.976L212.879 156.53L215.77 156.085L214.802 154.486L216.4 155.454L216.845 152.561Z" fill="#726DC3"/>
<path d="M248.263 123.771L248.708 126.665L250.304 125.697L249.336 127.296L252.227 127.741L249.336 128.185L250.304 129.784L248.708 128.815L248.263 131.709L247.818 128.815L246.22 129.784L247.188 128.185L244.297 127.741L247.188 127.296L246.22 125.697L247.818 126.665L248.263 123.771Z" fill="#726DC3"/>
<path d="M265.112 177.312L265.558 180.206L267.155 179.238L266.187 180.837L269.078 181.28L266.187 181.726L267.155 183.325L265.558 182.356L265.112 185.25L264.669 182.356L263.072 183.325L264.04 181.726L261.148 181.28L264.04 180.837L263.072 179.238L264.669 180.206L265.112 177.312Z" fill="#726DC3"/>
<path d="M248.263 148.592L248.708 151.486L250.304 150.517L249.336 152.114L252.227 152.56L249.336 153.005L250.304 154.604L248.708 153.635L248.263 156.529L247.818 153.635L246.22 154.604L247.188 153.005L244.297 152.56L247.188 152.114L246.22 150.517L247.818 151.486L248.263 148.592Z" fill="#726DC3"/>
<path d="M216.845 115.834L217.288 118.728L218.886 117.759L217.918 119.358L220.809 119.804L217.918 120.247L218.886 121.846L217.288 120.877L216.845 123.771L216.4 120.877L214.802 121.846L215.77 120.247L212.879 119.804L215.77 119.358L214.802 117.759L216.4 118.728L216.845 115.834Z" fill="#726DC3"/>
<path d="M117.835 135.002L118.28 137.896L119.878 136.927L118.908 138.524L121.801 138.97L118.908 139.415L119.878 141.014L118.28 140.045L117.835 142.939L117.39 140.045L115.794 141.014L116.762 139.415L113.871 138.97L116.762 138.524L115.794 136.927L117.39 137.896L117.835 135.002Z" fill="#726DC3"/>
<path d="M174.702 96.6562L175.147 99.5501L176.745 98.5813L175.775 100.178L178.668 100.624L175.775 101.069L176.745 102.669L175.147 101.7L174.702 104.594L174.257 101.7L172.662 102.669L173.629 101.069L170.738 100.624L173.629 100.178L172.662 98.5813L174.257 99.5501L174.702 96.6562Z" fill="#726DC3"/>
<path d="M187.22 77.8828L187.665 80.7767L189.261 79.8078L188.293 81.4069L191.184 81.8524L188.293 82.296L189.261 83.8951L187.665 82.9262L187.22 85.8201L186.775 82.9262L185.177 83.8951L186.147 82.296L183.254 81.8524L186.147 81.4069L185.177 79.8078L186.775 80.7767L187.22 77.8828Z" fill="#726DC3"/>
<path d="M216.63 92.6875L217.073 95.5814L218.671 94.6125L217.703 96.2116L220.594 96.657L217.703 97.1007L218.671 98.6998L217.073 97.7309L216.63 100.625L216.185 97.7309L214.587 98.6998L215.555 97.1007L212.664 96.657L215.555 96.2116L214.587 94.6125L216.185 95.5814L216.63 92.6875Z" fill="#726DC3"/>
<path d="M284.362 148.592L284.808 151.486L286.405 150.517L285.437 152.114L288.328 152.56L285.437 153.005L286.405 154.604L284.808 153.635L284.362 156.529L283.919 153.635L282.322 154.604L283.29 153.005L280.398 152.56L283.29 152.114L282.322 150.517L283.919 151.486L284.362 148.592Z" fill="#726DC3"/>
<path d="M68.5752 144.623L69.0203 147.517L70.6161 146.548L69.6481 148.147L72.5393 148.593L69.6481 149.038L70.6161 150.635L69.0203 149.666L68.5752 152.56L68.1302 149.666L66.5326 150.635L67.5006 149.038L64.6094 148.593L67.5006 148.147L66.5326 146.548L68.1302 147.517L68.5752 144.623Z" fill="#726DC3"/>
<path d="M75.6906 198.504L76.1357 201.398L77.7333 200.429L76.7653 202.028L79.6565 202.472L76.7653 202.917L77.7333 204.516L76.1357 203.547L75.6906 206.441L75.2455 203.547L73.6498 204.516L74.6177 202.917L71.7266 202.472L74.6177 202.028L73.6498 200.429L75.2455 201.398L75.6906 198.504Z" fill="#726DC3"/>
<path d="M300.195 177.312L300.64 180.206L302.237 179.238L301.269 180.837L304.16 181.28L301.269 181.726L302.237 183.325L300.64 182.356L300.195 185.25L299.751 182.356L298.154 183.325L299.122 181.726L296.23 181.28L299.122 180.837L298.154 179.238L299.751 180.206L300.195 177.312Z" fill="#726DC3"/>
<path d="M304.161 221.383L304.606 224.277L306.202 223.308L305.234 224.907L308.125 225.351L305.234 225.796L306.202 227.395L304.606 226.426L304.161 229.32L303.716 226.426L302.119 227.395L303.087 225.796L300.195 225.351L303.087 224.907L302.119 223.308L303.716 224.277L304.161 221.383Z" fill="#726DC3"/>
<path d="M89.9268 164.105L90.3701 166.999L91.9676 166.03L90.9997 167.63L93.8909 168.075L90.9997 168.52L91.9676 170.118L90.3701 169.149L89.9268 172.043L89.4817 169.149L87.8842 170.118L88.8521 168.52L85.9609 168.075L88.8521 167.63L87.8842 166.03L89.4817 166.999L89.9268 164.105Z" fill="#726DC3"/>
<path d="M147.899 152.561L148.345 155.454L149.94 154.486L148.972 156.085L151.864 156.53L148.972 156.976L149.94 158.573L148.345 157.604L147.899 160.498L147.454 157.604L145.857 158.573L146.825 156.976L143.934 156.53L146.825 156.085L145.857 154.486L147.454 155.454L147.899 152.561Z" fill="#726DC3"/>
<path d="M43.8956 214.617L44.3406 217.511L45.9364 216.542L44.9684 218.141L47.8596 218.587L44.9684 219.032L45.9364 220.629L44.3406 219.661L43.8956 222.554L43.4505 219.661L41.8529 220.629L42.8227 219.032L39.9297 218.587L42.8227 218.141L41.8529 216.542L43.4505 217.511L43.8956 214.617Z" fill="#726DC3"/>
<path d="M57.5167 357.268L57.9617 360.161L59.5575 359.193L58.5895 360.792L61.4825 361.237L58.5895 361.681L59.5575 363.28L57.9617 362.311L57.5167 365.205L57.0716 362.311L55.4758 363.28L56.4438 361.681L53.5508 361.237L56.4438 360.792L55.4758 359.193L57.0716 360.161L57.5167 357.268Z" fill="#726DC3"/>
<path d="M40.837 332.828L41.2802 335.722L42.8778 334.753L41.9098 336.35L44.801 336.796L41.9098 337.241L42.8778 338.84L41.2802 337.872L40.837 340.765L40.3919 337.872L38.7943 338.84L39.7623 337.241L36.8711 336.796L39.7623 336.35L38.7943 334.753L40.3919 335.722L40.837 332.828Z" fill="#726DC3"/>
<path d="M298.597 381.973L299.042 384.866L300.64 383.898L299.672 385.495L302.563 385.94L299.672 386.386L300.64 387.985L299.042 387.014L298.597 389.91L298.154 387.014L296.556 387.985L297.524 386.386L294.633 385.94L297.524 385.495L296.556 383.898L298.154 384.866L298.597 381.973Z" fill="#726DC3"/>
<path d="M314.441 355.602L314.886 358.495L316.481 357.527L315.514 359.126L318.406 359.571L315.514 360.017L316.481 361.614L314.886 360.645L314.441 363.539L313.996 360.645L312.4 361.614L313.368 360.017L310.477 359.571L313.368 359.126L312.4 357.527L313.996 358.495L314.441 355.602Z" fill="#726DC3"/>
<path d="M322.37 306.676L322.815 309.571L324.411 308.601L323.443 310.2L326.336 310.645L323.443 311.091L324.411 312.688L322.815 311.719L322.37 314.613L321.925 311.719L320.329 312.688L321.297 311.091L318.406 310.645L321.297 310.2L320.329 308.601L321.925 309.571L322.37 306.676Z" fill="#726DC3"/>
<path d="M36.8703 274.1L37.3154 276.993L38.913 276.025L37.9432 277.624L40.8362 278.069L37.9432 278.513L38.913 280.112L37.3154 279.143L36.8703 282.037L36.4252 279.143L34.8295 280.112L35.7974 278.513L32.9062 278.069L35.7974 277.624L34.8295 276.025L36.4252 276.993L36.8703 274.1Z" fill="#726DC3"/>
<path d="M57.5167 185.25L57.9617 188.144L59.5575 187.175L58.5895 188.774L61.4825 189.218L58.5895 189.663L59.5575 191.262L57.9617 190.293L57.5167 193.187L57.0716 190.293L55.4758 191.262L56.4438 189.663L53.5508 189.218L56.4438 188.774L55.4758 187.175L57.0716 188.144L57.5167 185.25Z" fill="#726DC3"/>
<path d="M44.8 162.248L45.2451 165.142L46.8426 164.173L45.8729 165.77L48.7659 166.216L45.8729 166.661L46.8426 168.26L45.2451 167.291L44.8 170.185L44.3549 167.291L42.7592 168.26L43.7271 166.661L40.8359 166.216L43.7271 165.77L42.7592 164.173L44.3549 165.142L44.8 162.248Z" fill="#726DC3"/>
<path d="M294.634 191.561L295.079 194.454L296.675 193.486L295.707 195.085L298.598 195.528L295.707 195.974L296.675 197.573L295.079 196.604L294.634 199.498L294.189 196.604L292.593 197.573L293.561 195.974L290.668 195.528L293.561 195.085L292.593 193.486L294.189 194.454L294.634 191.561Z" fill="#726DC3"/>
<path d="M322.37 246.268L322.815 249.161L324.411 248.193L323.443 249.79L326.336 250.235L323.443 250.681L324.411 252.28L322.815 251.311L322.37 254.205L321.925 251.311L320.329 252.28L321.297 250.681L318.406 250.235L321.297 249.79L320.329 248.193L321.925 249.161L322.37 246.268Z" fill="#726DC3"/>
<path d="M322.37 246.268L322.815 249.161L324.411 248.193L323.443 249.79L326.336 250.235L323.443 250.681L324.411 252.28L322.815 251.311L322.37 254.205L321.925 251.311L320.329 252.28L321.297 250.681L318.406 250.235L321.297 249.79L320.329 248.193L321.925 249.161L322.37 246.268Z" fill="#726DC3"/>
<path d="M126.462 55.3984L126.905 58.2923L128.503 57.3234L127.535 58.9225L130.426 59.368L127.535 59.8117L128.503 61.4107L126.905 60.4419L126.462 63.3357L126.017 60.4419L124.419 61.4107L125.387 59.8117L122.496 59.368L125.387 58.9225L124.419 57.3234L126.017 58.2923L126.462 55.3984Z" fill="#726DC3"/>
<path d="M236.481 471.054L236.036 468.161L234.439 469.129L235.407 467.53L232.516 467.087L235.407 466.641L234.439 465.042L236.036 466.011L236.481 463.117L236.925 466.011L238.522 465.042L237.554 466.641L240.446 467.087L237.554 467.53L238.522 469.129L236.925 468.161L236.481 471.054Z" fill="#726DC3"/>
<path d="M210.325 479.531L209.88 476.637L208.283 477.606L209.251 476.007L206.359 475.563L209.251 475.118L208.283 473.519L209.88 474.488L210.325 471.594L210.77 474.488L212.366 473.519L211.398 475.118L214.289 475.563L211.398 476.007L212.366 477.606L210.77 476.637L210.325 479.531Z" fill="#726DC3"/>
<path d="M298.597 483.5L298.154 480.606L296.556 481.575L297.524 479.976L294.633 479.53L297.524 479.085L296.556 477.487L298.154 478.456L298.597 475.562L299.042 478.456L300.64 477.487L299.672 479.085L302.563 479.53L299.672 479.976L300.64 481.575L299.042 480.606L298.597 483.5Z" fill="#726DC3"/>
<path d="M270.618 505.785L270.173 502.891L268.576 503.86L269.544 502.261L266.652 501.815L269.544 501.37L268.576 499.773L270.173 500.741L270.618 497.848L271.061 500.741L272.659 499.773L271.691 501.37L274.582 501.815L271.691 502.261L272.659 503.86L271.061 502.891L270.618 505.785Z" fill="#726DC3"/>
<path d="M151.027 444.248L150.581 441.354L148.986 442.321L149.954 440.724L147.062 440.278L149.954 439.833L148.986 438.236L150.581 439.204L151.027 436.311L151.472 439.204L153.067 438.236L152.099 439.833L154.991 440.278L152.099 440.724L153.067 442.321L151.472 441.354L151.027 444.248Z" fill="#726DC3"/>
<path d="M115.899 468.254L115.454 465.358L113.859 466.327L114.827 464.73L111.934 464.284L114.827 463.839L113.859 462.241L115.454 463.21L115.899 460.316L116.345 463.21L117.942 462.241L116.972 463.839L119.865 464.284L116.972 464.73L117.942 466.327L116.345 465.358L115.899 468.254Z" fill="#726DC3"/>
<path d="M104.839 419.453L104.396 416.559L102.798 417.528L103.766 415.929L100.875 415.485L103.766 415.04L102.798 413.441L104.396 414.409L104.839 411.516L105.284 414.409L106.882 413.441L105.914 415.04L108.805 415.485L105.914 415.929L106.882 417.528L105.284 416.559L104.839 419.453Z" fill="#726DC3"/>
<path d="M121.091 447.47L120.646 444.577L119.048 445.545L120.016 443.946L117.125 443.501L120.016 443.057L119.048 441.458L120.646 442.427L121.091 439.533L121.534 442.427L123.132 441.458L122.164 443.057L125.055 443.501L122.164 443.946L123.132 445.545L121.534 444.577L121.091 447.47Z" fill="#726DC3"/>
<path d="M143.097 482.283L142.652 479.389L141.056 480.358L142.024 478.759L139.133 478.313L142.024 477.87L141.056 476.271L142.652 477.24L143.097 474.346L143.542 477.24L145.138 476.271L144.17 477.87L147.063 478.313L144.17 478.759L145.138 480.358L143.542 479.389L143.097 482.283Z" fill="#726DC3"/>
<path d="M274.581 460.086L274.136 457.192L272.54 458.161L273.508 456.563L270.617 456.118L273.508 455.672L272.54 454.073L274.136 455.044L274.581 452.148L275.026 455.044L276.622 454.073L275.654 455.672L278.547 456.118L275.654 456.563L276.622 458.161L275.026 457.192L274.581 460.086Z" fill="#726DC3"/>
<path d="M183.253 493.877L182.81 490.983L181.212 491.952L182.18 490.354L179.289 489.909L182.18 489.463L181.212 487.864L182.81 488.833L183.253 485.939L183.698 488.833L185.296 487.864L184.328 489.463L187.219 489.909L184.328 490.354L185.296 491.952L183.698 490.983L183.253 493.877Z" fill="#726DC3"/>
<path d="M176.042 517.431L175.597 514.538L174.001 515.506L174.969 513.909L172.078 513.464L174.969 513.018L174.001 511.419L175.597 512.388L176.042 509.494L176.487 512.388L178.085 511.419L177.117 513.018L180.008 513.464L177.117 513.909L178.085 515.506L176.487 514.538L176.042 517.431Z" fill="#726DC3"/>
<path d="M147.064 509.752L146.618 506.858L145.021 507.827L145.989 506.229L143.098 505.784L145.989 505.338L145.021 503.741L146.618 504.71L147.064 501.814L147.507 504.71L149.104 503.741L148.136 505.338L151.028 505.784L148.136 506.229L149.104 507.827L147.507 506.858L147.064 509.752Z" fill="#726DC3"/>
<path d="M89.9268 443.984L89.4817 441.09L87.8842 442.059L88.8521 440.462L85.9609 440.016L88.8521 439.571L87.8842 437.972L89.4817 438.941L89.9268 436.047L90.3701 438.941L91.9676 437.972L90.9997 439.571L93.8909 440.016L90.9997 440.462L91.9676 442.059L90.3701 441.09L89.9268 443.984Z" fill="#726DC3"/>
<path d="M300.195 437.621L299.751 434.725L298.154 435.694L299.122 434.097L296.23 433.651L299.122 433.206L298.154 431.609L299.751 432.577L300.195 429.684L300.64 432.577L302.237 431.609L301.269 433.206L304.16 433.651L301.269 434.097L302.237 435.694L300.64 434.725L300.195 437.621Z" fill="#726DC3"/>
<path d="M254.45 482.283L254.005 479.389L252.409 480.358L253.376 478.759L250.484 478.313L253.376 477.87L252.409 476.271L254.005 477.24L254.45 474.346L254.895 477.24L256.491 476.271L255.523 477.87L258.414 478.313L255.523 478.759L256.491 480.358L254.895 479.389L254.45 482.283Z" fill="#726DC3"/>
<path d="M68.5752 425.504L68.1302 422.61L66.5326 423.579L67.5006 421.98L64.6094 421.534L67.5006 421.09L66.5326 419.491L68.1302 420.46L68.5752 417.566L69.0203 420.46L70.6161 419.491L69.6481 421.09L72.5393 421.534L69.6481 421.98L70.6161 423.579L69.0203 422.61L68.5752 425.504Z" fill="#726DC3"/>
<path d="M290.667 421.617L290.224 418.723L288.626 419.69L289.594 418.093L286.703 417.647L289.594 417.202L288.626 415.605L290.224 416.574L290.667 413.68L291.112 416.574L292.71 415.605L291.742 417.202L294.633 417.647L291.742 418.093L292.71 419.69L291.112 418.723L290.667 421.617Z" fill="#726DC3"/>
<path d="M235.339 443.984L234.896 441.09L233.298 442.059L234.266 440.462L231.375 440.016L234.266 439.571L233.298 437.972L234.896 438.941L235.339 436.047L235.784 438.941L237.382 437.972L236.414 439.571L239.305 440.016L236.414 440.462L237.382 442.059L235.784 441.09L235.339 443.984Z" fill="#726DC3"/>
<path d="M314.109 404.929L313.664 402.036L312.068 403.004L313.036 401.405L310.145 400.962L313.036 400.516L312.068 398.917L313.664 399.886L314.109 396.992L314.554 399.886L316.149 398.917L315.181 400.516L318.074 400.962L315.181 401.405L316.149 403.004L314.554 402.036L314.109 404.929Z" fill="#726DC3"/>
<path d="M256.192 421.617L255.747 418.723L254.15 419.69L255.118 418.093L252.227 417.647L255.118 417.202L254.15 415.605L255.747 416.574L256.192 413.68L256.636 416.574L258.233 415.605L257.265 417.202L260.156 417.647L257.265 418.093L258.233 419.69L256.636 418.723L256.192 421.617Z" fill="#726DC3"/>
<path d="M76.9914 408.873L76.5463 405.979L74.9506 406.948L75.9185 405.349L73.0273 404.903L75.9185 404.46L74.9506 402.861L76.5463 403.829L76.9914 400.936L77.4365 403.829L79.034 402.861L78.0661 404.46L80.9573 404.903L78.0661 405.349L79.034 406.948L77.4365 405.979L76.9914 408.873Z" fill="#726DC3"/>
<path d="M219.759 501.814L219.314 498.92L217.716 499.889L218.684 498.292L215.793 497.846L218.684 497.401L217.716 495.802L219.314 496.771L219.759 493.877L220.204 496.771L221.8 495.802L220.832 497.401L223.723 497.846L220.832 498.292L221.8 499.889L220.204 498.92L219.759 501.814Z" fill="#726DC3"/>
<path d="M206.208 431.604L206.653 434.497L208.249 433.529L207.281 435.128L210.172 435.573L207.281 436.017L208.249 437.616L206.653 436.647L206.208 439.541L205.763 436.647L204.165 437.616L205.133 436.017L202.242 435.573L205.133 435.128L204.165 433.529L205.763 434.497L206.208 431.604Z" fill="#726DC3"/>
<path d="M53.5518 397.553L53.1067 394.659L51.5092 395.627L52.4771 394.028L49.5859 393.585L52.4771 393.139L51.5092 391.54L53.1067 392.509L53.5518 389.615L53.9951 392.509L55.5926 391.54L54.6247 393.139L57.5159 393.585L54.6247 394.028L55.5926 395.627L53.9951 394.659L53.5518 397.553Z" fill="#726DC3"/>
</g>
<path d="M24.1562 549.95V45.0716C24.1562 33.5831 33.4612 24.2695 44.9391 24.2695H313.878C325.356 24.2695 334.663 33.5831 334.663 45.0716V549.95C334.663 551.578 333.344 552.898 331.718 552.898H27.0999C25.4734 552.898 24.1562 551.578 24.1562 549.95Z" stroke="#726DC3" stroke-width="1.151" stroke-miterlimit="10"/>
<path d="M141.684 24.2676C141.684 45.0425 158.51 61.8841 179.265 61.8841C200.021 61.8841 216.847 45.0425 216.847 24.2676H141.684Z" fill="#DCD9CD" stroke="#726DC3" stroke-width="1.151" stroke-miterlimit="10"/>
<path d="M175.813 33.5106L174.074 30.2572C174.032 30.1905 173.982 30.1154 173.924 30.032C173.873 29.9402 173.819 29.8568 173.761 29.7817C173.702 29.7067 173.636 29.6441 173.561 29.594C173.494 29.544 173.423 29.519 173.348 29.519V29.3938H175.125V29.519C175.075 29.519 175.016 29.5523 174.95 29.6191C174.891 29.6858 174.862 29.7692 174.862 29.8693C174.862 29.9277 174.879 29.9861 174.912 30.0445L176.326 32.6722L177.615 30.1696C177.615 30.1446 177.627 30.1196 177.652 30.0946C177.669 30.0528 177.686 30.0111 177.702 29.9694C177.727 29.9194 177.74 29.8735 177.74 29.8318C177.74 29.6983 177.694 29.6149 177.602 29.5815C177.511 29.5398 177.452 29.519 177.427 29.519V29.3938H178.816V29.519C178.674 29.519 178.537 29.5982 178.403 29.7567C178.278 29.9069 178.178 30.057 178.103 30.2072L176.576 33.1227L178.528 36.8015C178.57 36.8765 178.62 36.9558 178.678 37.0392C178.737 37.1226 178.799 37.2019 178.866 37.277C178.933 37.352 179 37.4146 179.066 37.4647C179.141 37.5064 179.216 37.5272 179.292 37.5272V37.6523H177.515V37.5272C177.565 37.5272 177.615 37.4938 177.665 37.4271C177.715 37.3604 177.74 37.2811 177.74 37.1894C177.74 37.131 177.715 37.0559 177.665 36.9641L176.076 33.9861L174.512 36.9641C174.487 37.0142 174.462 37.0726 174.437 37.1393C174.42 37.2061 174.412 37.2686 174.412 37.327C174.412 37.4605 174.474 37.5272 174.599 37.5272V37.6523H173.235V37.5272C173.294 37.5272 173.36 37.5105 173.436 37.4772C173.511 37.4355 173.586 37.3854 173.661 37.327C173.736 37.2686 173.807 37.2019 173.873 37.1268C173.94 37.0517 173.994 36.9808 174.036 36.9141L175.813 33.5106Z" fill="#353637"/>
<path d="M93.1845 569.233H93.2606V569.385H91.1009V569.233H91.177C91.2581 569.233 91.3291 569.202 91.3899 569.141C91.4507 569.081 91.5014 569.01 91.542 568.929C91.5927 568.847 91.6282 568.761 91.6485 568.67C91.6687 568.569 91.6789 568.477 91.6789 568.396V559.91H89.9147C89.7524 559.91 89.6105 559.945 89.4888 560.016C89.3672 560.087 89.2658 560.178 89.1846 560.29C89.1035 560.391 89.0427 560.508 89.0021 560.64C88.9616 560.761 88.9413 560.883 88.9413 561.005H88.7892V559.347H95.6179V561.005H95.4658C95.4658 560.883 95.4456 560.761 95.405 560.64C95.3645 560.508 95.3036 560.391 95.2225 560.29C95.1414 560.178 95.04 560.087 94.9183 560.016C94.7967 559.945 94.6547 559.91 94.4925 559.91H92.6979V568.396C92.6979 568.477 92.708 568.569 92.7283 568.67C92.7486 568.761 92.779 568.847 92.8195 568.929C92.8702 569.01 92.9209 569.081 92.9716 569.141C93.0324 569.202 93.1034 569.233 93.1845 569.233ZM100.85 569.233H100.926C101.169 569.233 101.291 569.121 101.291 568.898C101.291 568.817 101.276 568.731 101.245 568.64L99.8764 564.944H97.2148L95.8917 568.579C95.8613 568.66 95.8461 568.736 95.8461 568.807C95.8461 568.939 95.8815 569.045 95.9525 569.126C96.0235 569.197 96.0995 569.233 96.1807 569.233H96.2567V569.385H94.5685V569.233H94.6446C94.7764 569.233 94.9031 569.157 95.0248 569.005C95.1566 568.842 95.2631 568.655 95.3442 568.442L98.827 559.165L102.234 568.351C102.305 568.553 102.401 568.751 102.523 568.944C102.654 569.136 102.822 569.233 103.025 569.233H103.101V569.385H100.85V569.233ZM97.3669 564.427H99.7091L98.538 561.248L97.3669 564.427ZM106.079 569.233H106.155V569.385H104.011V569.233H104.087C104.158 569.233 104.224 569.202 104.285 569.141C104.345 569.081 104.396 569.01 104.437 568.929C104.487 568.847 104.523 568.761 104.543 568.67C104.563 568.569 104.573 568.477 104.573 568.396V560.29C104.573 560.219 104.563 560.138 104.543 560.047C104.523 559.955 104.487 559.869 104.437 559.788C104.396 559.707 104.345 559.641 104.285 559.59C104.224 559.53 104.158 559.499 104.087 559.499H104.011V559.347H106.657C107.671 559.347 108.452 559.545 108.999 559.94C109.557 560.336 109.836 560.919 109.836 561.689C109.836 562.074 109.77 562.414 109.638 562.708C109.516 562.992 109.349 563.24 109.136 563.453C108.923 563.656 108.67 563.823 108.376 563.955C108.092 564.077 107.788 564.168 107.463 564.229L108.558 565.902C108.822 566.308 109.09 566.708 109.364 567.103C109.638 567.489 109.907 567.889 110.17 568.305C110.241 568.406 110.317 568.513 110.398 568.624C110.49 568.736 110.581 568.837 110.672 568.929C110.774 569.02 110.875 569.096 110.976 569.157C111.088 569.207 111.199 569.233 111.311 569.233V569.385H110.657C110.251 569.385 109.917 569.288 109.653 569.096C109.4 568.893 109.187 568.66 109.014 568.396C108.558 567.727 108.102 567.048 107.646 566.358C107.2 565.669 106.753 564.989 106.307 564.32C106.196 564.31 106.074 564.3 105.942 564.29C105.821 564.27 105.704 564.249 105.592 564.229V568.396C105.592 568.477 105.603 568.569 105.623 568.67C105.643 568.761 105.674 568.847 105.714 568.929C105.765 569.01 105.816 569.081 105.866 569.141C105.927 569.202 105.998 569.233 106.079 569.233ZM105.592 559.864V563.727H105.669C105.75 563.737 105.876 563.747 106.049 563.758C106.231 563.758 106.454 563.758 106.718 563.758C106.931 563.758 107.154 563.727 107.387 563.666C107.63 563.595 107.853 563.484 108.056 563.332C108.269 563.169 108.442 562.962 108.573 562.708C108.715 562.455 108.786 562.135 108.786 561.75C108.786 561.365 108.71 561.05 108.558 560.807C108.416 560.564 108.213 560.371 107.95 560.229C107.696 560.087 107.387 559.991 107.022 559.94C106.657 559.889 106.257 559.864 105.821 559.864H105.592ZM117.349 559.195C118.14 559.195 118.85 559.337 119.479 559.621C120.107 559.895 120.64 560.27 121.076 560.746C121.522 561.213 121.861 561.76 122.094 562.389C122.338 563.007 122.46 563.656 122.46 564.335C122.46 565.096 122.318 565.796 122.034 566.434C121.76 567.073 121.38 567.621 120.893 568.077C120.406 568.533 119.839 568.893 119.19 569.157C118.551 569.41 117.866 569.537 117.136 569.537C116.356 569.537 115.651 569.395 115.022 569.111C114.404 568.827 113.877 568.452 113.441 567.986C113.015 567.519 112.685 566.982 112.452 566.373C112.219 565.765 112.102 565.131 112.102 564.472C112.102 563.823 112.219 563.185 112.452 562.556C112.685 561.917 113.025 561.35 113.471 560.853C113.927 560.356 114.48 559.955 115.129 559.651C115.778 559.347 116.518 559.195 117.349 559.195ZM117.334 569.005C118.013 568.974 118.607 568.822 119.114 568.548C119.631 568.264 120.062 567.91 120.406 567.484C120.751 567.048 121.005 566.571 121.167 566.054C121.339 565.537 121.425 565.025 121.425 564.518C121.425 563.96 121.324 563.398 121.121 562.83C120.918 562.262 120.629 561.75 120.254 561.294C119.879 560.827 119.428 560.452 118.901 560.168C118.384 559.874 117.801 559.727 117.152 559.727C116.523 559.727 115.96 559.869 115.463 560.153C114.967 560.427 114.541 560.782 114.186 561.218C113.841 561.654 113.578 562.14 113.395 562.678C113.213 563.215 113.121 563.742 113.121 564.259C113.121 564.817 113.228 565.38 113.441 565.948C113.654 566.505 113.948 567.012 114.323 567.468C114.698 567.925 115.139 568.295 115.646 568.579C116.163 568.863 116.726 569.005 117.334 569.005ZM163.198 569.233H163.274V569.385H161.114V569.233H161.19C161.272 569.233 161.343 569.202 161.403 569.141C161.464 569.081 161.515 569.01 161.555 568.929C161.606 568.847 161.642 568.761 161.662 568.67C161.682 568.569 161.692 568.477 161.692 568.396V559.91H159.928C159.766 559.91 159.624 559.945 159.502 560.016C159.381 560.087 159.279 560.178 159.198 560.29C159.117 560.391 159.056 560.508 159.016 560.64C158.975 560.761 158.955 560.883 158.955 561.005H158.803V559.347H165.631V561.005H165.479C165.479 560.883 165.459 560.761 165.418 560.64C165.378 560.508 165.317 560.391 165.236 560.29C165.155 560.178 165.053 560.087 164.932 560.016C164.81 559.945 164.668 559.91 164.506 559.91H162.711V568.396C162.711 568.477 162.721 568.569 162.742 568.67C162.762 568.761 162.792 568.847 162.833 568.929C162.884 569.01 162.934 569.081 162.985 569.141C163.046 569.202 163.117 569.233 163.198 569.233ZM170.832 559.195C171.623 559.195 172.333 559.337 172.962 559.621C173.59 559.895 174.122 560.27 174.558 560.746C175.005 561.213 175.344 561.76 175.577 562.389C175.821 563.007 175.942 563.656 175.942 564.335C175.942 565.096 175.8 565.796 175.517 566.434C175.243 567.073 174.863 567.621 174.376 568.077C173.889 568.533 173.321 568.893 172.673 569.157C172.034 569.41 171.349 569.537 170.619 569.537C169.839 569.537 169.134 569.395 168.505 569.111C167.887 568.827 167.36 568.452 166.924 567.986C166.498 567.519 166.168 566.982 165.935 566.373C165.702 565.765 165.585 565.131 165.585 564.472C165.585 563.823 165.702 563.185 165.935 562.556C166.168 561.917 166.508 561.35 166.954 560.853C167.41 560.356 167.963 559.955 168.612 559.651C169.261 559.347 170.001 559.195 170.832 559.195ZM170.817 569.005C171.496 568.974 172.09 568.822 172.597 568.548C173.114 568.264 173.545 567.91 173.889 567.484C174.234 567.048 174.487 566.571 174.65 566.054C174.822 565.537 174.908 565.025 174.908 564.518C174.908 563.96 174.807 563.398 174.604 562.83C174.401 562.262 174.112 561.75 173.737 561.294C173.362 560.827 172.911 560.452 172.384 560.168C171.867 559.874 171.284 559.727 170.635 559.727C170.006 559.727 169.443 559.869 168.946 560.153C168.45 560.427 168.024 560.782 167.669 561.218C167.324 561.654 167.061 562.14 166.878 562.678C166.696 563.215 166.604 563.742 166.604 564.259C166.604 564.817 166.711 565.38 166.924 565.948C167.137 566.505 167.431 567.012 167.806 567.468C168.181 567.925 168.622 568.295 169.129 568.579C169.646 568.863 170.209 569.005 170.817 569.005ZM185.459 569.233H185.535C185.606 569.233 185.672 569.202 185.733 569.141C185.794 569.081 185.844 569.01 185.885 568.929C185.936 568.847 185.971 568.761 185.991 568.67C186.012 568.569 186.022 568.477 186.022 568.396V560.396L182.098 569.552L178.372 560.868V568.396C178.372 568.477 178.382 568.569 178.402 568.67C178.423 568.761 178.453 568.847 178.494 568.929C178.544 569.01 178.6 569.081 178.661 569.141C178.722 569.202 178.793 569.233 178.874 569.233H178.95V569.385H177.292V569.233H177.368C177.439 569.233 177.505 569.202 177.566 569.141C177.627 569.081 177.677 569.01 177.718 568.929C177.758 568.847 177.789 568.761 177.809 568.67C177.829 568.569 177.84 568.477 177.84 568.396V560.29C177.84 560.219 177.829 560.138 177.809 560.047C177.789 559.955 177.758 559.869 177.718 559.788C177.677 559.707 177.627 559.641 177.566 559.59C177.505 559.53 177.439 559.499 177.368 559.499H177.292V559.347H178.843L182.372 567.666L185.9 559.347H187.619V559.499H187.543C187.462 559.499 187.391 559.53 187.33 559.59C187.269 559.641 187.213 559.707 187.163 559.788C187.122 559.869 187.092 559.955 187.071 560.047C187.051 560.138 187.041 560.219 187.041 560.29V568.396C187.041 568.477 187.051 568.569 187.071 568.67C187.092 568.761 187.122 568.847 187.163 568.929C187.213 569.01 187.269 569.081 187.33 569.141C187.391 569.202 187.462 569.233 187.543 569.233H187.619V569.385H185.459V569.233Z" fill="#353637"/>
<path d="M172.086 562.974C172.583 562.974 173.03 563.064 173.425 563.242C173.821 563.415 174.156 563.651 174.43 563.951C174.711 564.244 174.925 564.589 175.072 564.984C175.225 565.373 175.301 565.782 175.301 566.209C175.301 566.688 175.212 567.128 175.033 567.53C174.861 567.932 174.622 568.277 174.316 568.564C174.009 568.851 173.652 569.077 173.244 569.243C172.842 569.403 172.411 569.482 171.952 569.482C171.46 569.482 171.017 569.393 170.621 569.214C170.232 569.036 169.9 568.8 169.626 568.506C169.358 568.213 169.151 567.875 169.004 567.492C168.857 567.109 168.784 566.71 168.784 566.295C168.784 565.887 168.857 565.485 169.004 565.09C169.151 564.688 169.364 564.33 169.645 564.018C169.932 563.705 170.28 563.453 170.688 563.262C171.097 563.07 171.562 562.974 172.086 562.974ZM172.076 569.147C172.504 569.128 172.877 569.033 173.196 568.86C173.521 568.682 173.792 568.458 174.009 568.19C174.226 567.916 174.386 567.616 174.488 567.291C174.596 566.965 174.651 566.643 174.651 566.324C174.651 565.973 174.587 565.619 174.459 565.262C174.331 564.905 174.15 564.582 173.914 564.295C173.678 564.002 173.394 563.766 173.062 563.587C172.736 563.402 172.37 563.309 171.961 563.309C171.566 563.309 171.212 563.399 170.899 563.577C170.586 563.75 170.318 563.973 170.095 564.247C169.878 564.522 169.712 564.828 169.597 565.166C169.482 565.504 169.425 565.836 169.425 566.161C169.425 566.512 169.492 566.866 169.626 567.224C169.76 567.575 169.945 567.894 170.181 568.181C170.417 568.468 170.695 568.701 171.014 568.879C171.339 569.058 171.693 569.147 172.076 569.147ZM177.471 569.291H177.519V569.387H176.151V569.291H176.198C176.25 569.291 176.294 569.275 176.332 569.243C176.371 569.205 176.403 569.16 176.428 569.109C176.46 569.058 176.482 569.004 176.495 568.946C176.508 568.889 176.514 568.835 176.514 568.784V563.664C176.514 563.619 176.508 563.568 176.495 563.51C176.482 563.453 176.463 563.399 176.438 563.348C176.412 563.297 176.377 563.255 176.332 563.223C176.294 563.185 176.25 563.166 176.198 563.166H176.151V563.07H179.826V563.96H179.73C179.73 563.813 179.679 563.686 179.577 563.577C179.481 563.463 179.328 563.405 179.117 563.405H177.156V565.826H178.744C178.891 565.826 179.012 565.782 179.108 565.693C179.21 565.603 179.261 565.498 179.261 565.377H179.357V566.573H179.261C179.261 566.458 179.213 566.359 179.117 566.276C179.022 566.193 178.897 566.152 178.744 566.152H177.156V568.784C177.156 568.835 177.162 568.889 177.175 568.946C177.187 569.004 177.207 569.058 177.232 569.109C177.264 569.16 177.299 569.205 177.337 569.243C177.376 569.275 177.42 569.291 177.471 569.291Z" fill="#353637"/>
</g>
<defs>
<clipPath id="clip0_1142_3330">
<rect width="359" height="616" fill="white"/>
</clipPath>
</defs>
</svg>
