<svg width="650" height="672" viewBox="0 0 650 672" fill="none" xmlns="http://www.w3.org/2000/svg">
<path d="M161.696 487.354C161.696 487.354 129.251 544.656 125.645 598.912C125.645 598.912 161.285 664.754 309.571 670.595C457.858 676.432 498.565 613.595 498.565 613.595C499.235 559.226 471.397 499.55 471.397 499.55L161.696 487.354Z" fill="#726DC3"/>
<path d="M498.577 613.601C498.577 613.601 454.89 578.068 446.748 651.666C446.748 651.666 383.877 590.634 356.403 670.385C356.403 670.385 347.092 632.88 312.545 631.521C277.998 630.162 265.77 666.817 265.77 666.817C244.649 585.15 177.176 641.053 177.176 641.053C174.843 567.044 125.66 598.921 125.66 598.921" stroke="#353637" stroke-width="0.5" stroke-miterlimit="10" stroke-linecap="round" stroke-linejoin="round"/>
<path d="M212.831 581.065C209.424 588.587 202.831 592.952 198.106 590.809C193.384 588.669 192.316 580.834 195.726 573.312C199.136 565.79 205.726 561.426 210.451 563.569C215.176 565.708 216.241 573.543 212.831 581.065Z" stroke="#353637" stroke-width="0.5" stroke-miterlimit="10" stroke-linecap="round" stroke-linejoin="round"/>
<path d="M415.883 589.057C418.689 596.825 424.919 601.692 429.795 599.929C434.672 598.165 436.35 590.441 433.544 582.673C430.737 574.904 424.508 570.037 419.631 571.801C414.755 573.564 413.076 581.291 415.883 589.057Z" stroke="#353637" stroke-width="0.5" stroke-miterlimit="10" stroke-linecap="round" stroke-linejoin="round"/>
<path d="M329.599 603.129L312.842 623.473L297.738 601.874L314.492 581.533L329.599 603.129Z" stroke="#353637" stroke-width="0.5" stroke-miterlimit="10" stroke-linecap="round" stroke-linejoin="round"/>
<path d="M309.566 670.589C457.853 676.426 498.56 613.59 498.56 613.59" stroke="#353637" stroke-width="0.5" stroke-miterlimit="10" stroke-linecap="round" stroke-linejoin="round"/>
<path d="M161.696 487.354C161.696 487.354 129.251 544.656 125.645 598.912" stroke="#353637" stroke-width="0.5" stroke-miterlimit="10" stroke-linecap="round" stroke-linejoin="round"/>
<path d="M535.267 438.532C598.19 322.184 554.88 176.856 438.532 113.933C322.183 51.0099 176.855 94.3198 113.932 210.668C51.0091 327.017 94.3191 472.345 210.668 535.268C327.016 598.191 472.344 554.881 535.267 438.532Z" fill="#353637"/>
<path d="M450.482 319.068C450.482 319.068 328.005 167.122 196.602 311.173C196.602 311.173 231.307 387.11 315.192 399.028C399.074 410.943 450.482 319.068 450.482 319.068Z" fill="#F3EADF"/>
<mask id="mask0_1118_3216" style="mask-type:luminance" maskUnits="userSpaceOnUse" x="196" y="249" width="255" height="152">
<path d="M450.491 319.604C450.491 319.604 328.673 167.13 196.645 310.609C196.645 310.609 231.021 386.697 314.856 398.979C398.687 411.258 450.491 319.604 450.491 319.604Z" fill="white"/>
</mask>
<g mask="url(#mask0_1118_3216)">
<path d="M242.357 313.626C237.932 358.101 270.396 397.742 314.871 402.167C359.345 406.592 398.987 374.127 403.411 329.653C407.836 285.179 375.372 245.537 330.897 241.113C286.426 236.688 246.785 269.152 242.357 313.626Z" fill="#726DC3"/>
</g>
<mask id="mask1_1118_3216" style="mask-type:luminance" maskUnits="userSpaceOnUse" x="196" y="249" width="255" height="152">
<path d="M450.491 319.604C450.491 319.604 328.673 167.13 196.645 310.609C196.645 310.609 231.021 386.697 314.856 398.979C398.687 411.258 450.491 319.604 450.491 319.604Z" fill="white"/>
</mask>
<g mask="url(#mask1_1118_3216)">
<path d="M275.212 316.23C272.586 342.636 291.861 366.169 318.264 368.798C344.67 371.425 368.203 352.152 370.832 325.746C373.459 299.344 354.186 275.808 327.78 273.181C301.374 270.552 277.838 289.825 275.212 316.23Z" fill="#353637"/>
</g>
<path d="M174.633 281.318L190.524 301.403" stroke="#F3EADF" stroke-width="0.5" stroke-miterlimit="10" stroke-linecap="round" stroke-linejoin="round"/>
<path d="M189.613 245.506L211.658 279.247" stroke="#F3EADF" stroke-width="0.5" stroke-miterlimit="10" stroke-linecap="round" stroke-linejoin="round"/>
<path d="M229.07 242.705L238.906 261.826" stroke="#F3EADF" stroke-width="0.5" stroke-miterlimit="10" stroke-linecap="round" stroke-linejoin="round"/>
<path d="M256.602 213.367L268.709 246.957" stroke="#F3EADF" stroke-width="0.5" stroke-miterlimit="10" stroke-linecap="round" stroke-linejoin="round"/>
<path d="M294.203 218.963L297.499 239.421" stroke="#F3EADF" stroke-width="0.5" stroke-miterlimit="10" stroke-linecap="round" stroke-linejoin="round"/>
<path d="M473.495 293.09L456.074 311.866" stroke="#F3EADF" stroke-width="0.5" stroke-miterlimit="10" stroke-linecap="round" stroke-linejoin="round"/>
<path d="M461.396 256.209L436.77 288.111" stroke="#F3EADF" stroke-width="0.5" stroke-miterlimit="10" stroke-linecap="round" stroke-linejoin="round"/>
<path d="M422.262 250.312L410.957 268.599" stroke="#F3EADF" stroke-width="0.5" stroke-miterlimit="10" stroke-linecap="round" stroke-linejoin="round"/>
<path d="M397.126 218.912L382.414 251.446" stroke="#F3EADF" stroke-width="0.5" stroke-miterlimit="10" stroke-linecap="round" stroke-linejoin="round"/>
<path d="M359.196 221.533L354.301 241.669" stroke="#F3EADF" stroke-width="0.5" stroke-miterlimit="10" stroke-linecap="round" stroke-linejoin="round"/>
<path d="M326.641 237.376L328.11 200.061" stroke="#F3EADF" stroke-width="0.5" stroke-miterlimit="10" stroke-linecap="round" stroke-linejoin="round"/>
<path d="M470.57 366.768L454.68 346.68" stroke="#F3EADF" stroke-width="0.5" stroke-miterlimit="10" stroke-linecap="round" stroke-linejoin="round"/>
<path d="M455.607 402.575L433.562 368.834" stroke="#F3EADF" stroke-width="0.5" stroke-miterlimit="10" stroke-linecap="round" stroke-linejoin="round"/>
<path d="M416.156 405.387L406.32 386.27" stroke="#F3EADF" stroke-width="0.5" stroke-miterlimit="10" stroke-linecap="round" stroke-linejoin="round"/>
<path d="M388.627 434.716L376.52 401.127" stroke="#F3EADF" stroke-width="0.5" stroke-miterlimit="10" stroke-linecap="round" stroke-linejoin="round"/>
<path d="M351.023 429.116L347.727 408.658" stroke="#F3EADF" stroke-width="0.5" stroke-miterlimit="10" stroke-linecap="round" stroke-linejoin="round"/>
<path d="M171.727 355.003L189.147 336.227" stroke="#F3EADF" stroke-width="0.5" stroke-miterlimit="10" stroke-linecap="round" stroke-linejoin="round"/>
<path d="M183.836 391.874L208.462 359.969" stroke="#F3EADF" stroke-width="0.5" stroke-miterlimit="10" stroke-linecap="round" stroke-linejoin="round"/>
<path d="M222.945 397.765L234.25 379.479" stroke="#F3EADF" stroke-width="0.5" stroke-miterlimit="10" stroke-linecap="round" stroke-linejoin="round"/>
<path d="M248.086 429.187L262.798 396.656" stroke="#F3EADF" stroke-width="0.5" stroke-miterlimit="10" stroke-linecap="round" stroke-linejoin="round"/>
<path d="M286.012 426.559L290.907 406.424" stroke="#F3EADF" stroke-width="0.5" stroke-miterlimit="10" stroke-linecap="round" stroke-linejoin="round"/>
<path d="M318.579 410.711L317.109 448.03" stroke="#F3EADF" stroke-width="0.5" stroke-miterlimit="10" stroke-linecap="round" stroke-linejoin="round"/>
<path d="M313.115 494.518L318.326 478.672L322.536 494.812L336.066 485.056L329.985 500.59L346.666 500.65L332.618 509.644L346.078 519.496L329.426 518.513L334.524 534.397L321.629 523.813L316.417 539.66L312.208 523.519L298.674 533.275L304.755 517.742L288.074 517.682L302.126 508.69L288.665 498.836L305.318 499.819L300.22 483.937L313.115 494.518Z" fill="#F3EADF"/>
<path d="M336.408 145.366C341.455 139.102 342.106 125.701 330.691 118.884C335.523 118.764 340.431 120.177 344.638 123.249C354.77 130.647 356.989 144.857 349.59 154.989C342.192 165.122 327.982 167.34 317.85 159.942C313.65 156.876 310.808 152.638 309.449 148.005C318.507 156.276 330.792 153.055 336.408 145.366Z" fill="#F3EADF"/>
<path d="M512.965 320.77L520.97 300.189L525.803 321.738L538.688 329.165L524.832 334.575L516.827 355.156L511.998 333.608L499.109 326.181L512.965 320.77Z" fill="#F3EADF"/>
<path d="M121.259 305.335L129.264 284.754L134.096 306.302L146.982 313.729L133.129 319.14L125.124 339.721L120.292 318.173L107.406 310.746L121.259 305.335Z" fill="#F3EADF"/>
<path d="M465.941 221.848C465.679 225.331 462.645 227.942 459.162 227.679C455.679 227.417 453.068 224.383 453.331 220.9C453.593 217.417 456.627 214.807 460.11 215.069C463.593 215.331 466.203 218.365 465.941 221.848Z" fill="#F3EADF"/>
<path d="M526.269 400.055C526.007 403.538 522.973 406.149 519.49 405.886C516.007 405.624 513.396 402.59 513.659 399.107C513.921 395.624 516.955 393.014 520.438 393.276C523.921 393.538 526.531 396.572 526.269 400.055Z" fill="#F3EADF"/>
<path d="M211.429 446.469C211.167 449.952 208.13 452.563 204.65 452.3C201.167 452.038 198.557 449.001 198.819 445.521C199.081 442.038 202.118 439.428 205.598 439.69C209.081 439.952 211.692 442.986 211.429 446.469Z" fill="#F3EADF"/>
<path d="M413.687 494.918C413.425 498.401 410.391 501.012 406.908 500.75C403.425 500.487 400.814 497.45 401.077 493.97C401.339 490.487 404.373 487.877 407.856 488.139C411.339 488.398 413.949 491.436 413.687 494.918Z" fill="#F3EADF"/>
<path d="M157.16 216.018C156.897 219.501 153.86 222.112 150.38 221.849C146.898 221.587 144.287 218.55 144.549 215.07C144.812 211.587 147.849 208.977 151.329 209.239C154.808 209.501 157.422 212.535 157.16 216.018Z" fill="#F3EADF"/>
<path d="M259.796 132.881C259.534 136.364 256.497 138.975 253.017 138.712C249.534 138.45 246.924 135.413 247.186 131.933C247.448 128.454 250.486 125.84 253.965 126.102C257.448 126.361 260.059 129.398 259.796 132.881Z" fill="#F3EADF"/>
<path d="M525.909 248.561C525.747 250.71 523.873 252.322 521.724 252.161C519.575 251.999 517.963 250.125 518.124 247.976C518.286 245.827 520.16 244.215 522.309 244.376C524.461 244.538 526.07 246.412 525.909 248.561Z" fill="#F3EADF"/>
<path d="M248.991 506.616C248.83 508.765 246.955 510.376 244.806 510.215C242.657 510.054 241.045 508.18 241.206 506.031C241.368 503.882 243.242 502.27 245.391 502.431C247.54 502.592 249.152 504.466 248.991 506.616Z" fill="#F3EADF"/>
<path d="M472.252 424.547C472.091 426.696 470.217 428.308 468.068 428.147C465.919 427.986 464.307 426.112 464.468 423.962C464.629 421.813 466.504 420.201 468.653 420.363C470.802 420.524 472.414 422.398 472.252 424.547Z" fill="#F3EADF"/>
<path d="M430.041 152.244C429.88 154.394 428.006 156.005 425.857 155.844C423.708 155.683 422.096 153.809 422.257 151.66C422.418 149.511 424.293 147.899 426.442 148.06C428.594 148.221 430.203 150.095 430.041 152.244Z" fill="#F3EADF"/>
<path d="M124.209 388.051C124.048 390.2 122.174 391.812 120.025 391.651C117.876 391.49 116.264 389.616 116.425 387.466C116.586 385.317 118.46 383.705 120.61 383.867C122.759 384.025 124.371 385.899 124.209 388.051Z" fill="#F3EADF"/>
<path d="M235.022 190.983C234.861 193.132 232.987 194.744 230.837 194.582C228.688 194.421 227.076 192.547 227.238 190.398C227.399 188.249 229.273 186.637 231.422 186.798C233.571 186.959 235.183 188.833 235.022 190.983Z" fill="#F3EADF"/>
</svg>
