<svg width="21" height="21" viewBox="0 0 21 21" fill="none" xmlns="http://www.w3.org/2000/svg">
<g opacity="0.5">
<path d="M13.7149 3.628L13.7151 3.62819L15.0058 4.65344L15.0057 4.65345L15.0088 4.65581C15.457 5.00636 15.7367 5.45352 15.8303 5.89805L15.8302 5.89806L15.8313 5.90286C15.9365 6.3798 15.83 6.84897 15.4981 7.27491L15.4969 7.2764L7.81038 17.2165C7.81013 17.2169 7.80987 17.2172 7.80961 17.2175C7.55042 17.5486 7.17319 17.7322 6.76703 17.7393C6.76668 17.7393 6.76634 17.7393 6.766 17.7393L3.82718 17.7754L3.15837 14.8757C3.06871 14.4596 3.16125 14.0426 3.41404 13.7259L3.41409 13.7259L3.41891 13.7197L8.72309 6.85439L10.8243 8.52624C11.0755 8.73134 11.4152 8.83914 11.7683 8.79308C12.5065 8.70047 12.9904 8.03084 12.9171 7.33251L12.9171 7.3325L12.916 7.3235C12.8718 6.96509 12.695 6.67494 12.4763 6.46722L12.462 6.4537L12.4468 6.44133C12.4222 6.42143 11.8632 5.97311 11.3131 5.53202L10.558 4.9265L10.3454 4.75609L11.1058 3.76966C11.106 3.76936 11.1063 3.76906 11.1065 3.76876C11.7055 3.00072 12.7709 2.87717 13.7149 3.628ZM17.4911 17.0841C17.6963 17.0841 17.875 17.2558 17.875 17.4795C17.875 17.7039 17.6966 17.875 17.4911 17.875H12.4947C12.2891 17.875 12.1108 17.7039 12.1108 17.4795C12.1108 17.2558 12.2895 17.0841 12.4947 17.0841H17.4911Z" fill="#D9D9D9" stroke="#D9D9D9"/>
</g>
</svg>
